<?xml version="1.0" encoding="UTF-8" standalone="no"?>
<svg
   xmlns:dc="http://purl.org/dc/elements/1.1/"
   xmlns:cc="http://creativecommons.org/ns#"
   xmlns:rdf="http://www.w3.org/1999/02/22-rdf-syntax-ns#"
   xmlns:svg="http://www.w3.org/2000/svg"
   xmlns="http://www.w3.org/2000/svg"
   viewBox="0 0 210.56 217.27998"
   height="217.27998"
   width="210.56"
   xml:space="preserve"
   id="svg2"
   version="1.1"><metadata
     id="metadata8"><rdf:RDF><cc:Work
         rdf:about=""><dc:format>image/svg+xml</dc:format><dc:type
           rdf:resource="http://purl.org/dc/dcmitype/StillImage" /></cc:Work></rdf:RDF></metadata><defs
     id="defs6"><clipPath
       id="clipPath18"
       clipPathUnits="userSpaceOnUse"><path
         style="clip-rule:evenodd"
         id="path16"
         d="M 0,0 H 658.33331 V 677.14282 H 0 Z" /></clipPath><clipPath
       id="clipPath30"
       clipPathUnits="userSpaceOnUse"><path
         style="clip-rule:evenodd"
         id="path28"
         d="M 0,0 H 658.33331 V 677.14282 H 0 Z" /></clipPath></defs><g
     transform="matrix(0.31999998,0,0,0.31999998,0,7.4319997e-6)"
     id="g10"><g
       id="g12"><g
         clip-path="url(#clipPath18)"
         id="g14"><g
           transform="scale(3.1349206)"
           id="g20"><path
             id="path22"
             style="fill:#ffffff;fill-opacity:1;fill-rule:nonzero;stroke:none"
             d="M 0,0 H 210 V 217 H 0 Z" /></g></g></g><g
       id="g24"><g
         clip-path="url(#clipPath30)"
         id="g26"><g
           transform="matrix(0.01959325,0,0,0.01959325,296.31906,225.13228)"
           id="g32"><path
             id="path34"
             style="fill:#1f1f1f;fill-opacity:1;fill-rule:nonzero;stroke:none"
             d="m 35.200001,1350 c 0,15.2 7.599998,22.7999 22.799999,22.7999 15.199997,0 22.799995,-7.5999 22.800003,-22.7999 -8e-6,-15.2001 -7.600006,-22.8 -22.800003,-22.8 -15.200001,0 -22.799999,7.5999 -22.799999,22.8 m 50.600002,44.7 11.099999,-9.7 c 1.385223,-1.2502 2.685226,-2.5836 3.899998,-4 l 23,-26 c 0.47963,-0.5221 0.94629,-1.0554 1.4,-1.6 l 38.40001,-47.9 c 1.07936,-1.3433 2.07936,-2.7433 3,-4.1999 l 46,-73 c 0.16887,-0.2319 0.33554,-0.4651 0.5,-0.7001 l 55.1,-91.5 67.9,-105.2999 L 411,927.5 l 82.60001,-105.20001 86.1,-97.39997 80.89997,-88.80004 77,-76.09998 c 0.97381,-0.99683 1.90716,-2.03015 2.80004,-3.09998 l 69.79999,-80.70001 67.5,-76.30002 c 1.01654,-1.15985 1.98316,-2.35986 2.89997,-3.6 L 942.5,313.39999 1004.1,231.7 c 0.73,-0.94495 1.43,-1.91161 2.1,-2.9 l 50.2,-76.19999 c 0.8888,-1.33284 1.7222,-2.69951 2.5,-4.10001 l 34,-62 c 7.8548,-14.33004 9.4958,-29.339428 4.923,-45.028175 -4.5726,-15.688748 -14.021,-27.466004 -28.345,-35.3317717 -14.324,-7.8657675 -29.332,-9.5183592 -45.0243,-4.9577751 C 1008.7614,5.7428632 996.97687,15.182103 989.09998,29.5 L 955.79999,90.300003 909.59998,165.5 852.79999,247.5 792.09998,328.79999 729,406.70001 660.09998,486.5 l -73.5,80.29999 c -0.0333,0.0333 -0.0666,0.0666 -0.1,0.10003 l -82,90 c -0.47784,0.52356 -0.94452,1.05689 -1.39999,1.59998 L 418.5,759.59998 c -0.33972,0.39465 -0.67307,0.79467 -1,1.20001 l -84,107 c -0.59073,0.78296 -1.15741,1.58294 -1.70001,2.40002 L 258,977.09998 c -0.27277,0.39593 -0.53943,0.79589 -0.79999,1.20001 L 188.2,1085.3001 c -0.56127,0.8494 -1.09459,1.716 -1.59999,2.5999 l -51.80001,92.8 -44.700002,70.9 -33.5,47.1 -21.399997,24.3 c -0.990387,1.0863 -1.923722,2.2197 -2.799999,3.4 l -8.600003,12 c -14.2844837,20.3148 -12.234106,38.8196 6.151135,55.5146 18.385238,16.6949 37.001526,16.9567 55.848869,0.7854" /><path
             id="path36"
             style="fill:#1f1f1f;fill-opacity:1;fill-rule:nonzero;stroke:none"
             d="m 95.5,5 7.8,7.3 11.9,19.400001 c 0.0978,0.201109 0.19778,0.401108 0.3,0.599998 l 22.7,35.399998 32.6,56.200003 43.5,77.99999 c 0.16252,0.26925 0.3292,0.53591 0.5,0.80001 l 50.99999,85.00001 c 0.1936,0.33716 0.39361,0.6705 0.6,1 l 55.5,85 c 0.5047,0.7218 1.03803,1.42179 1.60001,2.09998 l 70,90 c 0.0661,0.10037 0.13278,0.20038 0.20001,0.30002 L 464.79999,555.5 c 0.5133,0.6178 1.04663,1.21777 1.6,1.79999 l 73.80002,80.79999 68.70001,77.60003 c 0.54975,0.58368 1.1164,1.15033 1.69996,1.70001 l 67.30004,67.29999 50.69996,64.39997 c 0.0995,0.10052 0.19952,0.2005 0.30004,0.30004 l 47,58.5 34.09998,58.5 c 0.80072,1.34388 1.66742,2.64386 2.59998,3.89997 L 846.29999,1016.5 872.5,1060.6 c 5.84509,9.853 14.14508,16.753 24.90002,20.7001 l 33.79999,12.3999 22.09998,20.4 c 12.73327,11.8 24.99994,11.3334 36.79999,-1.4 11.80002,-12.7333 11.33342,-25 -1.39997,-36.8 L 968.5,1057.3001 961,1025 c -1.40668,-6.0059 -3.87335,-11.5392 -7.40002,-16.6 L 923,964.5 c -0.19708,-0.26886 -0.39709,-0.53552 -0.59998,-0.79999 l -34.60003,-47.40002 -39.70001,-58 c -0.63215,-0.9256 -1.29877,-1.82562 -2,-2.70001 l -49,-61 c -0.70166,-0.86115 -1.435,-1.69452 -2.19996,-2.5 L 737.29999,730.5 c -0.29523,-0.30475 -0.59522,-0.60474 -0.89997,-0.90002 l -69,-69 c -0.16473,-0.2016 -0.33142,-0.40162 -0.5,-0.59998 l -74.10003,-71.20001 -73.09998,-80.09998 -76,-83.5 L 375,336.79999 317.60001,255.3 267.39999,171.60001 223.2,94.099998 c -0.0331,-0.06679 -0.0664,-0.133461 -0.1,-0.199996 l -33,-57 c -0.22542,-0.371701 -0.45876,-0.738369 -0.70002,-1.100003 L 166.7,0 152.8,-22.700001 C 152.24826,-23.632175 151.64827,-24.532175 151,-25.4 l -9.10001,-11.800001 C 128.0479,-55.661186 112.58453,-57.127232 95.509888,-41.598137 78.435242,-26.069042 78.431946,-10.536331 95.5,5" /></g><g
           transform="matrix(0.01959325,0,0,0.01959325,306.35178,513.54523)"
           id="g38"><path
             id="path40"
             style="fill:#1f1f1f;fill-opacity:1;fill-rule:nonzero;stroke:none"
             d="M 142.10001,125.4 127.7,120.1 c -1.76458,-0.65286 -3.56459,-1.18619 -5.4,-1.6 l -14.8,-3.3 -7.1,-4.8 c 3.04545,13.15529 10.17879,23.48863 21.4,30.99999 l -2.6,-11 0.3,-0.89999 6.5,-6.1 -3.3,1.1 5.5,2.3 C 122.05351,113.81364 112.35352,104.54697 99.099998,99 l 3.500002,7.4 0.1,1.2 -3.000003,5.6 -11.899994,9.8 -12.900001,4.7 c -2.937043,1.07399 -5.770379,2.37399 -8.5,3.90001 l -14.100003,7.79998 C 27.109556,153.42339 17.409557,174.55672 23.200001,202.8 L 24.6,209.89999 C 35.627399,195.52075 39.3274,179.45409 35.700001,161.7 l -2.799999,3.69999 C 19.750557,198.8367 28.844374,224.34291 60.181454,241.91866 91.518532,259.49438 118.02471,253.95483 139.7,225.3 l 1.90001,-4.90001 c 4.38249,-11.35716 5.48249,-23.02383 3.29998,-35 l -2,-11 C 139.68924,156.76216 130.71402,142.8407 115.97431,132.6356 101.23462,122.43052 85.045067,118.92905 67.405655,122.1312 49.766251,125.33335 35.840408,134.30179 25.628124,149.0365 15.415843,163.77121 11.906468,179.95905 15.1,197.60001 l 2,11 c 2.055148,11.32594 6.788479,21.3926 14.199999,30.19999 l 3.299999,4 c 21.215882,25.59154 46.572785,30.72386 76.070712,15.39705 29.49793,-15.32681 39.87436,-39.02582 31.12929,-71.09704 L 140.60001,182.7 c -0.47803,-1.86074 -1.0447,-3.69408 -1.70002,-5.5 L 136.3,170.39999 c -28.47809,16.7244 -36.94476,40.55773 -25.4,71.5 L 122.2,235.3 141,226.7 c 5.30621,-2.4039 10.13954,-5.53723 14.5,-9.4 L 183,192.8 c 5.43655,-4.80401 9.80322,-10.43734 13.10001,-16.90001 L 210.8,146.7 c 4.51009,-8.89948 6.54341,-18.33281 6.09999,-28.3 L 215.60001,90.400002 C 215.21642,81.948395 213.04976,73.981728 209.10001,66.5 L 199.7,48.700001 C 193.10696,36.198853 183.20695,27.432186 170,22.4 l -25.2,-9.5 c -13.23333,-5.037044 -26.46667,-5.037044 -39.7,0 L 77.300003,23.5 C 68.725624,26.775887 61.425621,31.875885 55.400002,38.799999 L 32.700001,64.900002 C 27.018414,71.426796 23.151747,78.893463 21.1,87.300003 L 14.2,115.6 c -2.365149,9.67138 -1.998482,19.23804 1.1,28.7 l 8.1,24.59999 c 3.654195,11.22954 10.387529,20.12955 20.199998,26.70002 l 15,10 C 74.852226,216.39281 91.752228,217.52614 109.3,209 l 22.2,-10.7 c 11.29915,-5.44294 18.73248,-14.17628 22.3,-26.19999 L 158.10001,157.5 c 4.71267,-15.70735 -0.62066,-26.40735 -16,-32.1" /></g><g
           transform="matrix(0.01959325,0,0,0.01959325,148.35318,232.65591)"
           id="g42"><path
             id="path44"
             style="fill:#1f1f1f;fill-opacity:1;fill-rule:nonzero;stroke:none"
             d="m 82,206.3 14,-23.90001 c 0.136269,-0.26518 0.269608,-0.53184 0.400002,-0.79998 L 105.2,165.8 l 7.5,-6.1 c -13.963222,-2.77723 -26.496555,0.28944 -37.600002,9.19999 L 76.300003,169.2 c 17.166016,3.41279 32.036987,-0.96695 44.612917,-13.13926 C 133.48886,143.88843 138.35121,129.16818 135.5,111.9 l -1.60001,-9.3 c -3.15489,8.54598 -3.98823,17.31265 -2.5,26.29999 L 135.10001,119.1 138,115.7 128.39999,119.8 125.7,119 l -2.4,-2.2 1.4,4 0.1,8.5 c 0.21286,34.96215 17.6462,54.76213 52.30001,59.4 l 9.79998,1.3 c 18.53359,2.60585 34.8631,-2.23038 48.98854,-14.50868 14.12542,-12.27831 21.18813,-27.77542 21.18813,-46.49132 0,-18.7159 -7.06271,-34.213005 -21.18813,-46.491318 C 221.76309,70.23037 205.43358,65.394142 186.89999,68 l -9.79998,1.300003 c 10.5688,31.311397 32.23545,44.811397 65,40.499997 L 236.3,92.699997 c -0.4479,-1.385735 -0.9479,-2.752396 -1.5,-4.099999 L 223.89999,63 C 220.44365,54.830093 215.34364,47.863426 208.60001,42.099998 L 190.3,26.5 C 183.75888,20.918135 176.32555,17.051468 168,14.9 L 138.89999,7.3000002 C 125.89777,3.9387534 113.33111,5.1387529 101.2,10.9 l -19.799998,9.399999 c -8.273118,3.918963 -15.139786,9.552296 -20.600003,16.900002 l -16,21.700001 c -5.523102,7.393447 -8.923103,15.66011 -10.200001,24.799995 L 31.799999,104 c -1.486236,10.87429 0.313763,21.17429 5.400002,30.89999 L 41.599998,143.2 c 2.783833,5.3567 6.417164,10.05671 10.900002,14.1 l 0.900002,0.80001 C 71.537155,135.55569 69.837158,114.62236 48.299999,95.300003 L 36.900002,109.5 C 32.960175,114.37293 30.193508,119.8396 28.6,125.9 l -6.800001,25.9 C 18.992641,162.57748 20.392641,172.77748 26,182.39999 L 40,206.3 c 4.686245,8.04894 11.686249,12.0734 21.000008,12.0734 9.313758,0 16.313751,-4.02446 20.999992,-12.0734 m 147.39999,-59.40001 23,-11 c 15.40226,-8.88464 19.26423,-21.34584 11.58591,-37.383587 -7.67831,-16.03775 -19.80693,-20.843216 -36.38589,-14.416405 l -23,11 c -15.40227,8.884642 -19.26426,21.345852 -11.58594,37.383612 7.67833,16.03778 19.80696,20.84325 36.38592,14.41638" /></g><g
           transform="matrix(0.01959325,0,0,0.01959325,303.84354,112.27462)"
           id="g46"><path
             id="path48"
             style="fill:#1f1f1f;fill-opacity:1;fill-rule:nonzero;stroke:none"
             d="M 143.5,149.60001 135.39999,149 c -6.67122,-0.53035 -13.10454,0.46965 -19.29999,3 l -15.5,6.2 -16.400003,-0.4 C 93.733452,169.55875 106.06678,175.62541 121.2,176 l -11.1,-13.7 c -3.35848,15.67626 0.008,29.74292 10.1,42.2 l 3.6,-16.7 14,-17.90001 31.09999,-28.5 L 200.5,125.6 l 21.5,-1 13,6.29999 9,11.80001 2.2,21.69999 -10.4,38.5 -29.3,51.5 -34.10001,55.9 -22,26.90002 5.10001,-2.40002 13.2,6.1 -1,-1.39999 v 0.79999 l 8.40001,-16 c 9.78244,-17.52634 11.5962,-35.84183 5.44131,-54.94641 -6.15488,-19.10463 -18.31914,-32.91686 -36.4928,-41.43666 -18.17365,-8.51979 -36.5715,-9.0351 -55.193547,-1.5459 -18.622055,7.48919 -31.540379,20.59886 -38.754975,39.32899 l -13.5,32.59998 C 31.791546,312.384 30.858213,326.78403 34.799999,341.5 l 9.400002,34.79999 c 1.934692,7.26059 5.068023,13.96057 9.399997,20.1 l 22,31 c 8.386544,11.80527 19.519883,19.77195 33.400002,23.9 l 29.60001,8.90002 c 15.10057,4.49765 29.7339,3.29767 43.89999,-3.6 l 33,-16 c 9.90576,-4.82199 17.90576,-11.82199 24,-21 l 28.89999,-43.4 c 1.00437,-1.49011 1.93769,-3.02344 2.80002,-4.6 l 33.4,-61.9 c 0.13546,-0.26559 0.26879,-0.53229 0.39999,-0.80002 L 335.89999,249.3 c 1.78138,-3.4517 3.18137,-7.05169 4.20002,-10.8 l 15,-55 c 2.04629,-7.50804 2.47961,-15.10803 1.29998,-22.8 l -7.1,-46.8 c -1.39975,-9.09646 -4.89975,-17.296454 -10.5,-24.599997 l -26,-34.000004 C 307.14389,47.891693 300.04391,42.325027 291.5,38.599998 L 254.10001,22.4 c -8.14806,-3.536843 -16.64806,-4.936842 -25.5,-4.199999 L 182.7,22 c -6.67327,0.548096 -13.00659,2.314762 -19,5.299999 l -48,24 c -4.93528,2.46394 -9.36861,5.630604 -13.3,9.5 L 64.099998,98.400002 c -2.215309,2.184718 -4.215309,4.551388 -6,7.099998 L 35.900002,137 c -3.963686,5.61339 -6.663687,11.78004 -8.100003,18.5 l -6,28 c -3.906559,18.33543 0.926775,33.96877 14.5,46.89999 l 12.799999,12.20002 c 13.208523,12.58406 28.641854,16.58407 46.300004,12 l 25.099998,-6.5 c 5.76409,-1.49923 11.03076,-4.03255 15.8,-7.60001 l 21,-15.8 c 13.954,-10.50188 19.32065,-24.33521 16.09999,-41.5 l -1.5,-8 C 168.94955,159.43773 159.4829,150.9044 143.5,149.60001 m -2,156.5 22,-4 c 19.82353,-3.83377 27.92065,-15.68168 24.29138,-35.54364 C 184.16212,246.69438 172.39833,238.47559 152.5,241.89999 l -22,4 c -19.82298,3.83414 -27.91988,15.68198 -24.2907,35.54349 3.62917,19.86151 15.39274,28.08035 35.2907,24.65653" /></g><g
           transform="matrix(0.01959325,0,0,0.01959325,389.11417,232.65607)"
           id="g50"><path
             id="path52"
             style="fill:#1f1f1f;fill-opacity:1;fill-rule:nonzero;stroke:none"
             d="M 91.800003,252.8 108.6,203.60001 c 0.51133,-1.47747 0.94466,-2.97747 1.3,-4.5 L 119.5,157.3 136.8,124.9 146.10001,115.7 151,115.2 C 139.78305,102.68807 125.81638,97.288078 109.1,99 l 4.1,4.5 0.1,-5.900002 -1.8,3.000002 c 26.30135,6.03182 46.20135,-2.634851 59.7,-26.000002 l -8.80001,-2 C 169.37943,91.609703 182.74609,103.34304 202.5,107.8 L 195,87.300003 C 194.5677,86.185432 194.10103,85.085426 193.60001,84 L 186.5,67.699997 C 181.20772,55.510048 172.74106,46.210052 161.10001,39.799999 l -4.70002,-2.5 C 140.04005,28.294682 123.20047,27.284458 105.88126,34.269329 88.56205,41.2542 77.134964,53.664421 71.599998,71.5 L 66.699997,87.199997 C 77.524178,79.401405 84.924179,69.134743 88.900002,56.400002 l -13,9.299995 c -4.072403,2.96244 -7.739068,6.362442 -11,10.200005 L 59.299999,82.5 c -13.83107,16.150101 -18.641758,34.6463 -14.432064,55.48863 4.209698,20.84233 15.822064,36.02144 34.837105,45.53733 19.015053,9.51589 38.12563,9.71179 57.33173,0.58766 19.20612,-9.1241 31.1272,-24.06197 35.76323,-44.81362 l 1.9,-8.5 c -3.46959,5.83644 -5.93627,12.06978 -7.4,18.7 l 8.2,-13.7 c 3.62509,-6.09596 6.09175,-12.6293 7.39999,-19.6 L 186,100 c -16.56587,-4.392387 -32.09699,-2.017563 -46.59335,7.12446 -14.49635,9.14202 -23.3319,22.13387 -26.50665,38.97555 l 5.2,1.29998 C 110.00281,133.16687 98.036148,123.96687 82.199997,119.8 l 8.600006,15 L 100.9,153.60001 c 10.6098,19.56553 27.04313,29.29885 49.3,29.19999 h 9 c 29.98768,-0.10106 47.85435,-14.86773 53.6,-44.3 L 216,122 c 1.23952,-6.21505 1.33951,-12.44838 0.3,-18.7 L 211.8,76.699997 C 210.20628,67.323418 206.23961,59.090084 199.89999,52 l -17,-19 C 170.74362,19.407696 155.67696,14.141031 137.7,17.200001 L 115.8,21 C 104.8964,22.865383 95.696404,27.865383 88.199997,36 L 62.799999,63.599998 c -3.535938,3.837044 -6.369274,8.13704 -8.5,12.900002 l -20.399997,45.7 c -1.478673,3.33989 -2.54534,6.80656 -3.200001,10.40001 l -9,48.09999 C 20.257174,188.48251 20.823839,196.11584 23.4,203.60001 L 40.200001,252.8 C 44.437561,265.05023 53.03756,271.17532 66,271.17532 c 12.96244,0 21.562439,-6.12509 25.800003,-18.37532 M 135.8,144.5 l 16,-11 c 16.3199,-11.20251 18.88257,-24.96645 7.68804,-41.291801 C 148.2935,75.882843 134.53082,73.313446 118.2,84.5 l -16,11 C 85.876175,106.70178 83.312332,120.46652 94.508469,136.7942 105.70463,153.1219 119.46847,155.69051 135.8,144.5" /></g><g
           transform="matrix(0.01959325,0,0,0.01959325,308.8591,232.65532)"
           id="g54"><path
             id="path56"
             style="fill:#1f1f1f;fill-opacity:1;fill-rule:nonzero;stroke:none"
             d="m 22.6,14371.9 -20.0000001,68 c -4.9568133,16.968 -3.18824577,33.205 5.3057041,48.707 8.493948,15.505 21.225438,25.736 38.194466,30.693 16.969021,4.956 33.205433,3.186 48.70924,-5.307 15.50381,-8.494 25.734,-21.225 30.69059,-38.193 L 4301.5,81.800003 c 4.9053,-16.979309 3.0908,-33.207382 -5.4429,-48.684235 -8.5337,-15.476854 -21.289,-25.6720968 -38.2661,-30.5857311 -16.977,-4.9136362 -33.206,-3.10734079 -48.687,5.4188853 -15.481,8.5262268 -25.6826,21.2765858 -30.604,38.2510788 L 2.5,14440.2 c -4.9565868,16.97 -3.18791914,33.205 5.306006,48.708 8.493925,15.505 21.225313,25.735 38.194166,30.691 16.96886,4.956 33.205166,3.187 48.708927,-5.306 15.503751,-8.493 25.734051,-21.225 30.690901,-38.193 l 19.99999,-68 c 4.99819,-16.956 3.26981,-33.196 -5.18512,-48.719 -8.45494,-15.524 -21.16001,-25.784 -38.11524,-30.781 -16.955236,-4.999 -33.194494,-3.271 -48.717783,5.185 -15.523292,8.454 -25.783908,21.159 -30.781847,38.115" /></g><g
           transform="matrix(0.01959325,0,0,0.01959325,306.35266,109.76647)"
           id="g58"><path
             id="path60"
             style="fill:#1f1f1f;fill-opacity:1;fill-rule:nonzero;stroke:none"
             d="m 2082.3,3130.3 11,16 c 10.1922,14.0237 23.8309,22.5059 40.9158,25.4466 17.0852,2.9404 32.7747,-0.4942 47.0689,-10.3035 14.2942,-9.8093 23.1416,-23.2139 26.5427,-40.2131 3.4011,-16.9993 0.3921,-32.7761 -9.0274,-47.3301 L 116.8,27.9 C 106.58076,14.015114 92.972855,5.6287241 75.976295,2.7408307 58.979729,-0.14706278 43.365578,3.2741947 29.133839,13.004604 14.902103,22.735018 6.0477448,36.043175 2.5707629,52.929081 -0.90621877,69.814987 1.9701929,85.53862 11.2,100.1 l 4386.0002,6416.0001 c 10.1396,14.2339 23.8149,22.8662 41.0264,25.8975 17.2114,3.0312 33.0131,-0.4102 47.4052,-10.3238 14.3921,-9.9135 23.2393,-23.4507 26.5415,-40.6123 3.3028,-17.1606 0.1119,-33.0141 -9.5732,-47.5615 l -41,-59 c -10.0796,-14.5259 -23.8179,-23.3604 -41.2158,-26.5039 -17.398,-3.1436 -33.3594,0.3242 -47.8843,10.4038 -14.5254,10.0791 -23.3599,23.8174 -26.5034,41.2153 -3.1441,17.398 0.3237,33.3594 10.4033,47.8848 l 41,59 c 10.1392,14.2339 23.8145,22.8667 41.0259,25.8979 17.2114,3.0308 33.0132,-0.4101 47.4053,-10.3237 14.392,-9.9136 23.2397,-23.4507 26.5424,-40.6118 3.3023,-17.1616 0.1114,-33.0156 -9.5737,-47.5625 L 116.8,27.9 C 106.58076,14.015114 92.972855,5.6287241 75.976295,2.7408307 58.979729,-0.14706278 43.365578,3.2741947 29.133839,13.004604 14.902103,22.735018 6.0477448,36.043175 2.5707629,52.929081 -0.90621877,69.814987 1.9701929,85.53862 11.2,100.1 l 2082,3046.0001 c 10.1921,14.0237 23.8308,22.5056 40.916,25.4463 17.0849,2.9404 32.7744,-0.4942 47.0686,-10.3035 14.2942,-9.8093 23.1416,-23.2136 26.5427,-40.2129 3.4011,-16.9992 0.3921,-32.7761 -9.0273,-47.33 l -11,-16 c -10.1399,-14.2342 -23.8152,-22.8665 -41.0262,-25.8975 -17.2112,-3.0313 -33.0129,0.4099 -47.405,10.3235 -14.3923,9.9133 -23.2397,23.4504 -26.5422,40.6118 -3.3025,17.1611 -0.1114,33.0151 9.5734,47.5622" /></g><g
           transform="matrix(0.01959325,0,0,0.01959325,145.8436,112.27399)"
           id="g62"><path
             id="path64"
             style="fill:#1f1f1f;fill-opacity:1;fill-rule:nonzero;stroke:none"
             d="m 512,6170.5 1228,-905 c 13.6241,-10.6724 21.6062,-24.582 23.9462,-41.7295 2.3399,-17.1479 -1.6234,-32.6875 -11.8899,-46.6196 -10.2666,-13.9326 -23.9356,-22.3208 -41.0069,-25.1641 -17.0713,-2.8432 -32.721,0.6611 -46.9494,10.5132 l -1638,1206 c -13.62413,10.6724 -21.606165,24.582 -23.946107,41.7295 -2.33994198,17.1479 1.6233945,32.6875 11.89001,46.6196 10.266613,13.9322 23.935521,22.3203 41.006729,25.1636 C 72.121841,6484.8564 87.771629,6481.3521 102,6471.5 l 8628,-6356 c 14.2354,-10.47981 22.6816,-24.457718 25.3369,-41.933708 2.6553,-17.476002 -1.2578,-33.331528 -11.7373,-47.566586 C 8733.1201,11.764652 8719.1426,3.3193722 8701.667,0.66386747 8684.1914,-1.9916372 8668.335,1.9204063 8654.0996,12.4 l -87,64.000002 c -14.249,10.465972 -22.7109,24.436988 -25.3867,41.913038 -2.6748,17.47607 1.2207,33.33857 11.6865,47.58749 10.4658,14.24891 24.4375,22.71086 41.9131,25.38585 17.4766,2.67498 33.3389,-1.22048 47.5879,-11.68637 l 87,-64.00001 c 14.2353,-10.47981 22.6807,-24.457719 25.3359,-41.933725 2.6553,-17.475998 -1.2568,-33.33152 -11.7363,-47.566574 C 8733.0205,11.864647 8719.043,3.4193673 8701.5674,0.76386392 8684.0918,-1.8916394 8668.2354,2.0204058 8654,12.5 L 26,6368.5 c -13.624133,10.6724 -21.6061711,24.582 -23.9461141,41.7295 -2.33994313,17.1479 1.6233936,32.6875 11.8900111,46.6196 10.266615,13.9322 23.935524,22.3203 41.006733,25.1636 17.071213,2.8437 32.721001,-0.6606 46.94937,-10.5127 l 1638,-1206 c 13.6242,-10.6724 21.6061,-24.5825 23.9461,-41.7295 2.3399,-17.1479 -1.6233,-32.6875 -11.8899,-46.6196 -10.2667,-13.9321 -23.9357,-22.3203 -41.0069,-25.1636 -17.0712,-2.8442 -32.721,0.6602 -46.9493,10.5127 l -1228,905 c -14.18314,10.5059 -22.58286,24.4863 -25.19916,41.9419 -2.61636,17.4556 1.31531,33.2852 11.79499,47.4878 10.47964,14.2026 24.4447,22.6279 41.89523,25.2768 17.45056,2.649 33.28686,-1.2534 47.50894,-11.7065" /></g><g
           transform="matrix(0.01959325,0,0,0.01959325,145.84396,235.16374)"
           id="g66"><path
             id="path68"
             style="fill:#1f1f1f;fill-opacity:1;fill-rule:nonzero;stroke:none"
             d="M 1851.3,3011.8 119.3,31.799999 C 110.26563,16.845663 97.284363,7.2069945 80.356186,2.8839912 63.427994,-1.439012 47.414703,0.79522419 32.316303,9.5867004 17.217901,18.378174 7.3706779,31.201958 2.7746317,48.05806 -1.8214147,64.914162 0.1537075,80.961472 8.6999998,96.199997 L 8311.7002,14386.2 c 9.0342,14.952 22.0156,24.59 38.9434,28.913 16.9277,4.322 32.9404,2.087 48.038,-6.704 15.0967,-8.792 24.9444,-21.615 29.5411,-38.469 4.5966,-16.856 2.622,-32.903 -5.9229,-48.14 L 119.3,31.799999 C 110.26563,16.845663 97.284363,7.2069945 80.356186,2.8839912 63.427994,-1.439012 47.414703,0.79522419 32.316303,9.5867004 17.217901,18.378174 7.3706779,31.201958 2.7746317,48.05806 -1.8214147,64.914162 0.1537075,80.961472 8.6999998,96.199997 L 1740.7,3076.2 c 9.034,14.9548 22.0152,24.5937 38.9436,28.9169 16.9283,4.3233 32.9418,2.0892 48.0406,-6.7023 15.0986,-8.7918 24.9459,-21.6158 29.5419,-38.4722 4.596,-16.8562 2.6207,-32.9038 -5.9261,-48.1424" /></g><g
           transform="matrix(0.01959325,0,0,0.01959325,216.06625,262.75073)"
           id="g70"><path
             id="path72"
             style="fill:#1f1f1f;fill-opacity:1;fill-rule:nonzero;stroke:none"
             d="m 298.60001,71 v -9.799999 l 0.19998,-12.5 C 299.25864,29.621653 290.02533,18.854986 271.10001,16.4 l -23,-3 C 240.93431,12.483587 234.2343,13.850254 228,17.5 l -36.2,21 c -5.02766,2.97234 -9.02766,6.97234 -12,12 l -36,60 c -0.79252,1.31928 -1.49252,2.68594 -2.1,4.1 l -41.899997,97.79999 c -0.629829,1.46569 -1.163162,2.96569 -1.600006,4.5 l -34,120 c -0.188911,0.72828 -0.355579,1.46161 -0.499996,2.20002 L 33.5,478.39999 c -0.307026,1.38773 -0.540359,2.78775 -0.700001,4.20002 L 15.8,638.59998 c -0.03747,0.33294 -0.0708,0.66626 -0.1,1 l -14,165.70001 c -0.162688,1.66284 -0.2293547,3.32953 -0.2,5 l 5,172 c 0.058071,1.10382 0.1580706,2.20379 0.3000002,3.29999 L 25.4,1161.8001 c 0.161916,1.4781 0.39525,2.9447 0.7,4.3999 l 35.999998,176 c 0.205918,0.9072 0.439251,1.8072 0.700001,2.7 L 107.9,1512.4 c 0.28889,1.1794 0.62222,2.3461 1,3.5 l 53.99999,153 c 0.39473,1.0823 0.82807,2.149 1.30001,3.2 l 56.5,129.6 c 0.97206,2.251 2.10539,4.4177 3.40001,6.5 l 60,96 c 1.79763,2.8446 3.86428,5.4779 6.19998,7.9 l 60.6,63.4 c 5.28971,5.5347 11.52304,9.6346 18.70002,12.3 l 70,26 c 12.92678,4.8132 25.66012,4.3465 38.19998,-1.4 l 61.79999,-28.4 59.80004,-20.6 c 16.25916,-5.6037 21.58967,-16.5361 15.99158,-32.7972 -5.59808,-16.261 -16.52862,-21.5952 -32.79162,-16.0028 l -53.79999,18.5 -57.09998,-13.9 -56.90002,-21.1 L 365,1847.3 309.5,1758.4 252.3,1635 199.5,1485.3001 151.5,1321.9 116.2,1149.4 93.400002,977.5 88.5,809.40002 96.400002,646.20001 113.1,492.60001 l 23.2,-137.4 33.09999,-116.80002 34.5,-95.69999 30.80001,-51.299998 17.90001,-13.200005 7,0.900001 8.89999,3.200005 C 268.49094,71.638206 263.45758,64.5382 253.39999,61 v 10 c 0,15.066673 7.53333,22.600006 22.60001,22.600006 15.06668,0 22.60001,-7.533333 22.60001,-22.600006" /><path
             id="path74"
             style="fill:#1f1f1f;fill-opacity:1;fill-rule:nonzero;stroke:none"
             d="M 939.29999,955.20001 1000.4,1025.6 l 31.3,44.3 38.1001,60.4001 41.5999,70.5999 c 0.5651,0.9886 1.1651,1.9552 1.8,2.9001 l 49,71 c 0.2935,0.4047 0.5936,0.8048 0.9,1.1999 l 50.7001,68.8001 43.1999,72.2999 32.3001,74.3 c 0.4345,0.9821 0.9012,1.9488 1.3999,2.9001 l 32.5,63.0999 25.2,54.7 18.9001,42.7001 c 13.543,28.8975 34.904,36.8837 64.083,23.9587 29.179,-12.9251 37.618,-34.1113 25.3169,-63.5588 l -19,-43 c -0.1303,-0.3013 -0.2636,-0.6012 -0.3999,-0.8999 l -26.2001,-56 c -0.2569,-0.5383 -0.5235,-1.0717 -0.7999,-1.6001 L 1377.9,1450.9 1344,1375.3001 c -0.7693,-1.7175 -1.636,-3.3841 -2.6,-5 l -46,-77 c -0.9998,-1.7009 -2.0999,-3.3342 -3.3,-4.9001 l -53.1,-68.3 -48,-69.6 -45.4,-67.9 -38.7,-61.4 c -1.3546,-2.1993 -2.8879,-4.266 -4.5999,-6.2 l -38.5,-42.70001 c -1.0082,-1.12512 -2.075,-2.19177 -3.2001,-3.20001 l -71.00002,-63.5 c -16.51337,-14.64557 -32.62824,-14.21955 -48.34461,1.27813 -15.71637,15.49768 -16.36816,31.60498 -1.95538,48.3219" /><path
             id="path76"
             style="fill:#1f1f1f;fill-opacity:1;fill-rule:nonzero;stroke:none"
             d="m 992.90002,1762.9 5.69996,-5.7 18.60002,-11.1 c 2.1908,-1.3246 4.2241,-2.8579 6.1,-4.6 l 25.0001,-23 c 0.408,-0.3579 0.8079,-0.7246 1.1999,-1.1 l 32.4,-32.5 c 0.2708,-0.2625 0.5374,-0.5292 0.8,-0.8 l 49,-52 c 0.5175,-0.5512 1.0175,-1.1178 1.5,-1.7 l 60.3,-72.8 c 0.1349,-0.1655 0.2682,-0.3322 0.4,-0.5 l 64,-80 c 0.1347,-0.1654 0.2681,-0.3322 0.4001,-0.5 l 67.5999,-87.7999 c 0.2386,-0.3296 0.4718,-0.663 0.7,-1 l 63.5,-88.2001 64.8,-81 61.8,-75.9 c 0.2367,-0.2637 0.47,-0.5303 0.7,-0.8 l 52.2,-67.4 c 0.4117,-0.5244 0.8117,-1.0577 1.2001,-1.6 l 45,-64 c 1.4981,-2.153 2.7982,-4.4196 3.8999,-6.8 l 25.6001,-54.39999 33.5999,-31.79999 c 11.9333,-11.26672 12.2666,-22.86676 1,-34.80004 -11.2666,-11.93329 -22.8665,-12.26667 -34.8,-1 l -34.9,33 L 1556.5,944 c -5.7302,3.31476 -10.4969,7.68146 -14.3,13.09998 l -45,64.00002 c -0.1354,0.2321 -0.2687,0.4654 -0.3999,0.7 l -46.7001,69.0001 -60.7999,74.5 c -0.6623,0.7769 -1.2957,1.577 -1.9001,2.3999 l -60.2,85.7 -63.8,88.8 c -0.033,0.033 -0.067,0.067 -0.1,0.1001 l -63.8,89.3999 -63.3,79.1001 -58.8,72 -47.3,50.2999 -32.50002,30.5 -21.39997,19.7 -19.10003,10.1 c -3.33338,1.7855 -6.33338,4.0189 -9,6.7 l -9,9 c -17.88385,17.9334 -17.87146,35.8545 0.0372,53.763 17.90863,17.9086 35.82959,17.9209 53.76287,0.037" /><path
             id="path78"
             style="fill:#1f1f1f;fill-opacity:1;fill-rule:nonzero;stroke:none"
             d="m 1793.2,2081 v 10 c 19.1837,-2.8694 28.7838,-14.0027 28.8,-33.3999 l -10.2,1.5 c 8.4269,8.6023 18.5937,12.0022 30.5,10.1999 l -16.5,-16.8 -19.5,-40.9 -20.1,-67 -12.9,-99.6 -11.6,-115.2 5.8,-121.8 19.2,-114.3 25.2,-98.1 29,-70.2999 29.4,-36.9001 17.7,-8.2 20.3,7.6001 32.3,36.3999 28.5,69.8 22.4,104.4 12.3,120.8 -2.8,125.2 -20.5,113.6 -33.9,100.8 -37,84.8 -27.8,50.0001 -21,26.1999 c -9.9761,12.4827 -14.082,26.6651 -12.3177,42.5469 1.7643,15.8819 8.8826,28.8174 21.3551,38.8064 12.4725,9.989 26.6506,14.1094 42.5344,12.3616 15.8836,-1.7478 28.8263,-8.8528 38.8282,-21.3149 l 24,-30 c 2.2469,-2.8162 4.2136,-5.8162 5.9,-9 l 30.5,-57.4 c 0.8836,-1.6606 1.6836,-3.3605 2.4,-5.1 l 37,-90.5 c 0.4343,-1.0875 0.8345,-2.1874 1.2,-3.3 l 36,-107 c 0.9714,-2.8739 1.7045,-5.8072 2.1999,-8.8 l 20,-122.2 c 0.4138,-2.5503 0.6472,-5.1169 0.7002,-7.7 l 3,-133 c 0.047,-2.5761 -0.087,-5.1427 -0.4001,-7.7 l -15,-126.9 c -0.1917,-1.6456 -0.4583,-3.279 -0.8001,-4.9 l -24,-112 c -0.7937,-3.6886 -1.9604,-7.2553 -3.5,-10.7 L 2034.1,1274.6 c -2.2061,-4.9472 -5.1061,-9.4472 -8.7,-13.5 l -47,-53 c -6.5287,-7.3651 -14.4953,-12.4984 -23.9,-15.4 l -53.5,-16.5 c -12.4048,-3.809 -24.5048,-3.0091 -36.3,2.4 l -48,22 c -8.2485,3.7656 -15.0151,9.3323 -20.3,16.7001 l -38.5,54.0999 c -2.2079,3.0563 -4.0412,6.323 -5.5,9.8 l -33,80 c -1.181,2.8814 -2.081,5.8481 -2.7,8.9 l -21.4,104.5 c -0.1104,0.5648 -0.2105,1.1316 -0.3,1.7001 l -20,119 c -0.4465,2.5472 -0.6798,5.1138 -0.6999,7.6999 l 0.1,128 c 0.026,1.4717 0.1258,2.9384 0.3,4.4 l 12,119 c 0.1318,1.4098 0.3319,2.8097 0.6,4.2 l 20.6,102.3 c 0.244,1.214 0.5441,2.4141 0.9,3.6 l 22,73 c 0.9688,3.2755 2.3355,6.3756 4.1,9.3 l 28.4,46.5 c 2.2415,3.6888 5.0414,6.8887 8.4,9.5999 l 23.2,18.6001 c 11.4008,9.1667 23.7342,10.6667 37,4.5 l 9.4,-4.3 c 13.0314,-6.0848 19.5314,-16.3179 19.5,-30.7 v -10 c 0,-22.5334 -11.2667,-33.8 -33.8,-33.8 -22.5333,0 -33.8,11.2666 -33.8,33.8" /><path
             id="path80"
             style="fill:#1f1f1f;fill-opacity:1;fill-rule:nonzero;stroke:none"
             d="m 2418.6001,1620.7 -0.3001,43 c 0.01,2.2834 0.209,4.5501 0.5999,6.8 l 9.4001,58.1 c 0.063,0.3006 0.1299,0.6007 0.2,0.9 l 12.3,66.3 v 70.3 l -2.9001,71 -6.5,69.4 -7.2998,66.5 c -0.075,0.4988 -0.1418,0.9988 -0.2002,1.5 l -4,53 c -2.3332,30.7334 11.8669,47.2668 42.6001,49.6001 30.7334,2.3332 47.2668,-11.8667 49.6001,-42.6001 l 4,-53 c 2e-4,-0.1001 2e-4,-0.2002 0,-0.3 l 4.6999,-67.1 c 0,-0.3334 0,-0.6668 0,-1 l 3.3001,-71.1 c 0.033,-0.067 0.067,-0.1333 0.1,-0.2 l 3,-73 c 0.031,-1.3682 0,-2.7349 -0.1,-4.1 l -3.9001,-74.9 c -0.1185,-1.7818 -0.3516,-3.5485 -0.7,-5.3 l -13,-70 -9.8999,-54.3 -0.2002,-39.5 c -0.052,-26.8808 -13.519,-40.3212 -40.3999,-40.3212 -26.8809,0 -40.3474,13.4404 -40.3999,40.3212" /></g><g
           transform="matrix(0.01959325,0,0,0.01959325,276.25671,282.81424)"
           id="g82"><path
             id="path84"
             style="fill:#1f1f1f;fill-opacity:1;fill-rule:nonzero;stroke:none"
             d="M 10.6,45.299999 5.0999999,123 c -0.185544,2.50292 -0.1522107,5.00291 0.1,7.5 L 12.4,198.8 c 0.08527,0.66887 0.185273,1.33554 0.3,2 l 13.000001,86.99999 c 0.0867,0.63547 0.186697,1.2688 0.299999,1.90002 l 19.700001,102.4 c 0.09099,0.535 0.190994,1.06836 0.299999,1.6 l 23,101 c 0.212563,0.80603 0.4459,1.60602 0.699997,2.4 L 96.5,591.79999 c 0.827065,2.82684 1.89373,5.56018 3.199997,8.20001 L 136,674.79999 c 2.68193,5.60199 6.2486,10.56866 10.7,14.90002 l 54,52 c 9.14106,8.79999 20.04106,13.63336 32.69999,14.5 l 72.70002,5 68,15.5 c 16.49966,2.94867 26.62463,-3.74511 30.37497,-20.08124 3.7503,-16.33612 -2.44135,-26.77569 -18.57499,-31.31878 l -63.29998,-14.5 -49.9,-45.09998 L 225.10001,620 191.39999,557.90002 162.39999,471 140,372.29999 c -0.0657,-0.16706 -0.13239,-0.33371 -0.2,-0.5 L 116,272.29999 103.3,187.2 c -0.0893,-0.56853 -0.18931,-1.1352 -0.3,-1.7 L 90.699997,120.5 85.400002,45.299999 C 83.704132,22.124508 71.237465,10.536763 48.000004,10.536763 24.762543,10.536766 12.295875,22.124512 10.6,45.299999" /><path
             id="path86"
             style="fill:#1f1f1f;fill-opacity:1;fill-rule:nonzero;stroke:none"
             d="m 719,-59.099998 2.20001,-12.700005 c -0.25171,-25.362511 -13.01208,-39.138447 -38.28119,-41.327827 -25.2691,-2.18938 -40.20868,9.18656 -44.81884,34.12783 v 2.800003 l -9.69996,27.499996 c -0.65264,1.798615 -1.18603,3.631947 -1.60003,5.5 L 614,17.299999 589.90002,118.2 c -6e-5,0.0333 -6e-5,0.0667 0,0.1 L 558,252.60001 l -45.09998,166.6 c -0.0334,0.0666 -0.0668,0.13324 -0.10003,0.19998 L 464,602.70001 l -57.20001,189.5 c -0.14298,0.56439 -0.27631,1.13111 -0.4,1.70001 L 358.60001,975 l -84.9,279.4 c -0.0336,0.1 -0.067,0.2 -0.1,0.3 L 244.3,1353 c -0.47365,1.6154 -0.87365,3.2488 -1.19999,4.9 l -16,79 c -0.14798,0.7307 -0.28131,1.464 -0.40001,2.2 l -9,56 c -2.45177,15.2679 0.8524,29.1673 9.9125,41.6985 9.06012,12.5311 21.22365,20.0252 36.49059,22.4824 15.26694,2.4571 29.1676,-0.8423 41.70193,-9.8981 12.5343,-9.0558 20.03263,-21.2167 22.49497,-36.4828 l 8.80002,-54.9 15.6,-76.6999 24.09998,-97.5 80.6,-280.6001 c 0.0707,-0.366 0.13736,-0.7327 0.20002,-1.1 l 48,-181.80001 52.49997,-191.39997 c 0.0336,-0.0999 0.067,-0.19995 0.10003,-0.30004 l 49,-183.99997 c 0.10504,-0.39878 0.20508,-0.79877 0.29999,-1.20002 l 40.59998,-168.5 c 1.8e-4,-0.0667 1.8e-4,-0.13333 0,-0.19998 l 32,-135.00001 c 0.14654,-0.63054 0.2799,-1.26387 0.40002,-1.9 l 19.70001,-102.000001 12.89997,-60.5 L 720.90002,-60 c 0.65943,-2.963772 0.99274,-5.963768 1,-9 v -10 c -4.61016,-24.94127 -19.54974,-36.31721 -44.81884,-34.12783 -25.26911,2.18938 -38.02948,15.965316 -38.28119,41.327827 L 641,-59.099998 c 3.84247,21.821865 16.84247,32.732795 39,32.732795 22.15753,2e-6 35.15753,-10.91093 39,-32.732795" /><path
             id="path88"
             style="fill:#1f1f1f;fill-opacity:1;fill-rule:nonzero;stroke:none"
             d="m 927.70001,1082 v 10 c 5.40003,-7.0491 8.10004,-15.0157 8.09998,-23.9 l -9.59998,12.5 c 9.36127,-2.1684 16.96124,-7.0683 22.79999,-14.7 l -13,3 c 10.52136,12.6208 23.78802,17.0874 39.79999,13.4001 L 959,1062.2 l -17.90002,-41.4 -15,-68.89998 L 921.5,856.20001 937.70001,741.90002 965.5,619.29999 1008,507 l 48.6,-86.39999 46.9,-54.30002 29.2,-15.09998 12.4,5.09998 33.5,51.40002 25,103.29999 12.8,129.59998 -5.7,136.60003 -23.5,134.70001 -37.3,118.49998 -38.7,74 c -0.3096,0.5617 -0.6095,1.1283 -0.8999,1.7 l -6.1001,12.8 -15.5,-4.5 c -17.4327,-4.5953 -28.6554,1.7657 -33.6683,19.0828 -5.0128,17.3171 1.0766,28.6896 18.2684,34.1172 l 38,11 c 0.5943,0.1869 1.1943,0.3535 1.7999,0.5 l 36.8,7.9 c 29.2074,6.3554 50.4074,-3.878 63.6,-30.6999 l 39,-79.5 c 1.3751,-2.8056 2.5085,-5.7056 3.4,-8.7001 L 1294,940.90002 c 0.6851,-2.29864 1.2184,-4.63195 1.6,-7 l 23.2001,-142.10003 c 0.3633,-2.15265 0.5968,-4.31934 0.6999,-6.5 l 6,-144 c 0.096,-2.67401 0,-5.3407 -0.3,-8 l -14.3999,-137 c -0.2466,-2.35965 -0.6467,-4.69296 -1.2001,-7 l -28,-116 c -1.5215,-6.18039 -4.0548,-11.91373 -7.6,-17.19998 l -48.3,-72.80002 c -6.0715,-9.11045 -14.1714,-15.74378 -24.3,-19.9 l -51,-21 c -15.7634,-6.48269 -31.1301,-5.64936 -46.0999,2.5 L 1044.6,277.5 c -5.6107,3.04785 -10.5108,6.98117 -14.7,11.79999 l -56.99998,66 c -2.6015,3.01498 -4.83483,6.28164 -6.70001,9.80002 l -50.90002,95.6 c -1.30866,2.47724 -2.40869,5.04389 -3.29999,7.69998 l -40.90002,120.69999 c -0.52045,1.64404 -0.95374,3.31073 -1.29999,5 l -29,128 c -0.51129,2.14215 -0.87799,4.30883 -1.09998,6.5 l -10.90002,121.20001 c -0.18085,2.13104 -0.21417,4.26434 -0.1,6.40002 l 5,104 c 0.18061,3.91785 0.84729,7.75116 2,11.5 L 858.90002,1046.7 c 0.45673,1.4617 0.99006,2.8951 1.59998,4.3 l 22,51 c 2.69543,6.2788 6.66211,11.6122 11.90002,16 l 24.89997,20.8001 c 10.19244,8.5123 21.75909,11.2789 34.70001,8.2999 l 13,-3 c 10.81018,-2.5075 19.14349,-8.4741 25,-17.9 l 8.4,-13.3999 c 3.9504,-6.3708 5.9171,-13.3041 5.9,-20.8001 v -10 c 0,-26.2001 -13.09999,-39.3 -39.3,-39.3 -26.20001,0 -39.29999,13.0999 -39.29999,39.3" /><path
             id="path90"
             style="fill:#1f1f1f;fill-opacity:1;fill-rule:nonzero;stroke:none"
             d="m 1599,-1116.8001 h 1.4 l 11.7,5.1001 24.5,16.5 28.1,43.3999 34.8,88.20012 c 0.033,0.0334 0.067,0.0667 0.1,0.1 l 43.9,110.20001 32.8,131.20001 29.2,147.09998 13.7,158.89999 2.9,156.70002 -11.6,167.699993 L 1790,81.199997 1753.8,255.2 l -42.9,164.90001 -53.0999,151.80001 c -0.1713,0.43158 -0.3379,0.86487 -0.5,1.29999 l -46,141 C 1611.1982,714.466 1611.0983,714.73267 1611,715 l -37,118.70001 c -0.2093,0.63037 -0.4093,1.26367 -0.6,1.89997 l -25,89 c -5.0809,18.11492 -3.0133,35.37341 6.2032,51.77545 9.2164,16.40204 22.882,27.14357 40.9969,32.22457 18.115,5.0811 35.3735,3.0134 51.7755,-6.203 16.402,-9.21634 27.1434,-22.88199 32.2244,-40.99698 l 24.9,-88.60003 34.5,-118 45.7,-140 c 0.034,-0.0999 0.067,-0.19995 0.1,-0.29999 l 49.9,-155.70001 c 0.3996,-1.15628 0.7663,-2.32297 1.1,-3.5 l 44,-169 c 0.4946,-1.98111 0.8946,-3.98111 1.2,-6 L 1909.9,100.7 c 0.1509,-0.830547 0.2842,-1.663875 0.4,-2.500003 l 21,-177 c 0.2498,-2.159508 0.3831,-4.326172 0.4,-6.5 l 2.1,-171.999987 c 0.01,-0.56668 0.01,-1.13333 0,-1.70001 l -3,-161 c -0.051,-2.61642 -0.2839,-5.2164 -0.7,-7.79999 l -25.8,-162.10003 c -0.089,-0.60181 -0.189,-1.20179 -0.3,-1.79999 l -30,-151 c -0.4047,-2.06714 -0.938,-4.10047 -1.6,-6.09998 l -44.1,-132.29999 c -0.2771,-0.80865 -0.5771,-1.6087 -0.9,-2.40002 l -45,-113 c -0.2805,-0.74133 -0.5805,-1.47467 -0.9,-2.20001 L 1739.9,-1088.5 c -0.8106,-1.7994 -1.744,-3.5328 -2.8,-5.2 l -35,-54 c -3.2948,-5.0792 -7.4948,-9.2458 -12.6,-12.5 l -35.3,-22.5 c -1.8506,-1.1881 -3.784,-2.2215 -5.8,-3.1001 l -23,-10 c -5.2314,-2.2681 -10.6981,-3.4014 -16.4,-3.3999 h -10 c -27.4287,0.038 -41.1431,13.7712 -41.1431,41.2 0,27.4288 13.7144,41.1621 41.1431,41.1999" /></g><g
           transform="matrix(0.01959325,0,0,0.01959325,108.22503,561.19543)"
           id="g92"><path
             id="path94"
             style="fill:#1f1f1f;fill-opacity:1;fill-rule:nonzero;stroke:none"
             d="m 64,128 h 17572 c 17.672,-1e-5 32.756,-6.2484 45.254,-18.74517 C 17693.75,96.758057 17699.998,81.673111 17700,64 c 0,-17.673115 -6.25,-32.758059 -18.746,-45.254835 C 17668.756,6.2483883 17653.672,0 17636,0 h -3 c -17.674,0 -32.758,6.2483883 -45.256,18.745165 C 17575.248,31.241941 17569,46.326885 17569,64 c 0,17.673111 6.248,32.758057 18.744,45.25483 12.498,12.49677 27.582,18.74516 45.256,18.74517 h 943 c 17.672,-1e-5 32.756,-6.2484 45.252,-18.74517 C 18633.75,96.758057 18639.998,81.673111 18640,64 c 0,-17.673115 -6.25,-32.758059 -18.748,-45.254835 C 18608.756,6.2483883 18593.672,0 18576,0 h -152 c -17.674,0 -32.76,6.2483883 -45.256,18.745165 -12.498,12.496776 -18.746,27.58172 -18.744,45.254835 0,17.673111 6.246,32.758057 18.744,45.25483 12.496,12.49677 27.582,18.74516 45.256,18.74517 h 152 c 17.672,-1e-5 32.756,-6.2484 45.252,-18.74517 C 18633.75,96.758057 18639.998,81.673111 18640,64 c 0,-17.673115 -6.25,-32.758059 -18.748,-45.254835 C 18608.756,6.2483883 18593.672,0 18576,0 h -943 c -17.674,0 -32.758,6.2483883 -45.256,18.745165 C 17575.248,31.241941 17569,46.326885 17569,64 c 0,17.673111 6.248,32.758057 18.744,45.25483 12.498,12.49677 27.582,18.74516 45.256,18.74517 h 3 c 17.672,-1e-5 32.756,-6.2484 45.254,-18.74517 C 17693.75,96.758057 17699.998,81.673111 17700,64 c 0,-17.673115 -6.25,-32.758059 -18.746,-45.254835 C 17668.756,6.2483883 17653.672,0 17636,0 H 64 C 46.326885,0 31.241941,6.2483883 18.745165,18.745165 6.2483883,31.241941 0,46.326885 0,64 0,81.673111 6.2483883,96.758057 18.745165,109.25483 31.241941,121.7516 46.326885,127.99999 64,128" /></g><g
           transform="matrix(0.01959325,0,0,0.01959325,461.84308,551.16272)"
           id="g96"><path
             id="path98"
             style="fill:#1f1f1f;fill-opacity:1;fill-rule:nonzero;stroke:none"
             d="m 41.700001,66 c 4e-6,16.199997 8.100002,24.299995 24.300007,24.299995 16.199997,0 24.299995,-8.099998 24.299995,-24.299995 0,-16.200001 -8.099998,-24.299999 -24.299995,-24.299999 -16.200005,0 -24.300003,8.099998 -24.300007,24.299999 M 37.5,87 l 6.099998,17.1 c 1.69125,4.74482 4.157917,9.04481 7.400002,12.9 l 13.699997,16.3 12.600006,21.4 c 0.2593,0.43786 0.525971,0.8712 0.799995,1.3 L 97.5,186.7 117.1,220 c 0.35456,0.57449 0.72122,1.14116 1.1,1.7 l 20.8,32.40001 c 1.46046,2.26568 3.0938,4.39901 4.89999,6.39999 l 28,31 c 1.29285,1.37759 2.65952,2.67761 4.10001,3.89999 l 31.39999,27.80002 c 2.51072,2.2265 5.21071,4.19318 8.10001,5.9 l 34.7,20.39999 32.69999,19.79999 c 0.56058,0.34366 1.12726,0.67697 1.70002,1 l 30,16.70001 29.1,18.29999 33.59998,24.80002 c 1.01095,0.73309 2.04428,1.4331 3.1,2.1 l 37.30002,24 c 1.68296,1.08725 3.41629,2.08725 5.19998,3 l 39,19.9 c 1.98471,1.00991 4.01804,1.90991 6.10001,2.69998 l 40.10001,15.30002 c 3.76641,1.43008 7.63308,2.49673 11.6,3.19998 l 38,6.80002 30.59998,9.6 24.29999,8.20001 9.10003,6.09998 4.89997,6.79999 c 5.22222,-19.6756 1.88885,-37.77561 -10,-54.29999 l -2,7.29999 -7.69996,10 -31.60003,26.5 -46.59998,35.79999 -51.1,38.10003 -58.30002,41.5 -60.9,42.70001 c -1.94653,1.36506 -3.8132,2.83167 -5.6,4.39997 l -57,50 c -2.01407,1.75055 -3.91406,3.61725 -5.69998,5.60003 L 243,798.29999 c -2.07193,2.29907 -3.97192,4.73242 -5.7,7.29999 l -40,60 c -0.30592,0.46283 -0.60592,0.9295 -0.90001,1.40002 L 159.60001,925.59998 122.8,982.20001 c -0.70066,1.11334 -1.36732,2.24671 -2,3.39997 L 90.800003,1038.6 c -0.37722,0.6272 -0.743889,1.2605 -1.100006,1.9 l -22,42 c -8.186581,16.0668 -9.539963,32.6898 -4.060146,49.8691 5.479816,17.1794 16.208599,29.9485 32.186359,38.3074 15.97775,8.3588 32.58527,9.8909 49.82258,4.5961 17.23729,-5.2948 30.12103,-15.8858 38.65121,-31.7726 l 21.5,-41 28.5,-50.4 35.90001,-55.30001 c 0.20243,-0.2984 0.40244,-0.59839 0.59998,-0.89997 l 36.40002,-58.30004 37,-55.5 41.09998,-46.59998 51.30002,-45 58.19998,-41.20001 c 0.0334,-0.0333 0.0667,-0.0666 0.1,-0.1 l 59.00003,-42 c 0.50519,-0.35956 1.00519,-0.72626 1.5,-1.10003 L 607.20001,666.9 c 0.1673,-0.1325 0.33399,-0.26586 0.5,-0.40002 l 48,-37 c 0.81488,-0.61456 1.61487,-1.24786 2.39997,-1.90002 L 696,595.40002 c 3.48285,-2.96814 6.61621,-6.26812 9.40002,-9.90002 l 20,-26 c 5.66291,-7.36151 9.56293,-15.56152 11.69996,-24.59998 l 4.70001,-20.10003 c 4.72937,-20.06543 0.76269,-38.23209 -11.89997,-54.5 L 717.59998,444.5 c -4.50879,-5.74319 -9.84211,-10.57654 -16,-14.5 L 675.5,413.20001 c -4.54205,-2.91217 -9.37537,-5.21219 -14.5,-6.90002 l -33,-10.9 c -0.29926,-0.10217 -0.59924,-0.20218 -0.90002,-0.29998 l -35,-11 c -2.13678,-0.68091 -4.30341,-1.24759 -6.5,-1.70002 l -40.29999,-8.1 L 509,365 475.79999,352 442.5,333.10001 l -35.20001,-23 c -1.52207,-1.00821 -3.08875,-1.94153 -4.69998,-2.80002 l -33.70002,-17.69998 c -1.05081,-0.53379 -2.11749,-1.03379 -3.19998,-1.5 l -29.5,-13.20002 -30.1,-18.19998 C 304.448,255.70937 302.74799,254.80936 301,254 L 268.29999,238.60001 242.3,220.3 218.60001,194.10001 196.8,168.39999 178.89999,138 c -1.37794,-2.3344 -2.94461,-4.53439 -4.69999,-6.60001 L 150.3,103.1 c -0.39042,-0.47488 -0.79043,-0.94155 -1.19999,-1.4 L 130.5,81.400002 115.3,63.299999 104.1,49.599998 C 90.339851,32.894966 74.024445,29.840973 55.15377,40.438019 36.283104,51.035072 30.398512,66.555725 37.5,87" /><path
             id="path100"
             style="fill:#1f1f1f;fill-opacity:1;fill-rule:nonzero;stroke:none"
             d="m 1133.9,636.40002 40.3,54.89997 30.3,42.60003 c 0.7288,1.02912 1.4955,2.02912 2.3001,3 l 44.1999,52.79999 46.6,71.39997 43.9,77.10003 39.8001,74.29999 32.5999,66.1 28.7,58.9 23.7001,51.4 c 0.6424,1.3961 1.3424,2.7628 2.0999,4.1 l 22.8,40.1 c 0.1311,0.2677 0.2644,0.5344 0.4,0.8 l 19.7001,33.5 13.6999,24.5 c 7.4337,13.2433 18.4603,21.9214 33.0797,26.0343 14.6195,4.1131 28.5535,2.4573 41.8018,-4.9674 13.2484,-7.4247 21.9341,-18.4452 26.0571,-33.0617 4.1229,-14.6166 2.4768,-28.5517 -4.9386,-41.8052 l -14,-25 c -0.1964,-0.3355 -0.3965,-0.6688 -0.6,-1 l -19.9,-33.9 -21.9,-37.5 -22.9,-49.6 c -0.4416,-0.913 -0.9081,-1.8129 -1.3999,-2.7 l -30.6001,-57.8 -32.6,-66.30001 c -0.5613,-1.12097 -1.1613,-2.22095 -1.7999,-3.29999 L 1432,887 1387.2,808.29999 c -0.9422,-1.69098 -1.9755,-3.32434 -3.1,-4.89997 l -52.9,-72.60003 c -0.6363,-0.92249 -1.3029,-1.82251 -2,-2.70001 l -46,-55 c -0.4234,-0.50861 -0.8567,-1.00861 -1.3,-1.5 l -35.3,-38.89997 c -2.1205,-2.33648 -4.4539,-4.43652 -7,-6.29999 l -55.2,-40.5 c -16.6371,-11.88971 -32.1855,-10.60473 -46.6451,3.85486 -14.4596,14.4596 -15.7445,30.008 -3.8549,46.64514" /><path
             id="path102"
             style="fill:#1f1f1f;fill-opacity:1;fill-rule:nonzero;stroke:none"
             d="m 1135.4,1232.6 3.8,3.8 7.7,12.5 c 1.9318,3.1054 4.2652,5.872 7,8.3 l 10.5,9.3 c 6.7246,5.9945 14.5913,8.9945 23.6,9 h 15 c 7.6558,0.01 14.5891,-2.2236 20.8001,-6.6999 l 29,-21 c 2.5496,-1.8327 4.8164,-3.9661 6.7999,-6.4001 l 39,-48 c 0.6727,-0.8379 1.306,-1.7046 1.9,-2.5999 l 45.6,-67.9001 c 0.3468,-0.525 0.68,-1.0583 1,-1.5999 l 52.9,-87.8001 58.9,-96.09998 c 0.2759,-0.46136 0.5425,-0.92804 0.8,-1.40002 l 55.7,-99.40002 53.6,-88.39997 49.1,-69.79999 c 0.9078,-1.32122 1.7411,-2.68792 2.5,-4.10003 l 34.6,-62.39997 43.4,-36.10003 c 12.5333,-10.40003 13.6001,-21.8667 3.2,-34.40003 -10.4,-12.53332 -21.8667,-13.59997 -34.4,-3.19995 l -45.7,37.89997 -63.1,39.5 c -5.0418,3.14447 -9.275,7.14447 -12.7,12 l -50,71 c -1.1065,1.56805 -2.1065,3.20135 -3,4.90002 l -48.9,93 -55.6999,99.5 c -0.1697,0.26477 -0.3363,0.53143 -0.5,0.79999 L 1335.4,995.5 l -52.5,87.1 -41,67.9 -34.5,42.5 -15.9,11.5 h -3.5 c 6.835,11.7942 17.0682,17.6942 30.7,17.7 l -6,-10.3999 -7,-15.7001 c -1.9783,-4.3998 -4.6783,-8.2997 -8.1,-11.7 l -7,-7 c -18.37,-16.3244 -36.2435,-15.7981 -53.6209,1.5793 -17.3772,17.3773 -17.9035,35.2508 -1.5791,53.6207" /></g><g
           transform="matrix(0.01959325,0,0,0.01959325,105.71687,72.148666)"
           id="g104"><path
             id="path106"
             style="fill:#1f1f1f;fill-opacity:1;fill-rule:nonzero;stroke:none"
             d="m 0,64 v 24914 c 0,17.672 6.2483883,32.756 18.745165,45.252 12.496776,12.498 27.58172,18.746 45.254835,18.748 17.673111,0 32.758057,-6.25 45.25483,-18.748 12.49677,-12.496 18.74516,-27.58 18.74517,-45.252 V 64 C 127.99999,46.326885 121.7516,31.241941 109.25483,18.745165 96.758057,6.2483883 81.673111,0 64,0 46.326885,0 31.241941,6.2483883 18.745165,18.745165 6.2483883,31.241941 0,46.326885 0,64" /><path
             id="path108"
             style="fill:#1f1f1f;fill-opacity:1;fill-rule:nonzero;stroke:none"
             d="m -543.5,738.79999 -0.20001,24 c -0.0106,0.43335 -0.0106,0.8667 0,1.29999 l 0.79999,18.20001 c 0.26916,6.67059 2.3692,12.70398 6.30004,18.10003 l 7.39997,10.19996 c 11.0885,15.19152 25.22183,18.95819 42.40002,11.30004 l 9,-4 c 5.78604,-2.57806 10.51935,-6.4447 14.19998,-11.60003 l 16.5,-22.89997 c 1.56281,-2.22235 2.8628,-4.58898 3.9,-7.10003 l 22,-52 c 0.40243,-0.88544 0.7691,-1.7854 1.1,-2.70001 l 23.60001,-71.5 c 0.138,-0.33149 0.27133,-0.6648 0.39999,-1 L -371.39999,567 l 31.19998,-87.60001 c 0.1387,-0.36471 0.27203,-0.73138 0.40002,-1.1 l 26.5,-82.69998 28.9,-72.5 30.59999,-70 29.1,-63.60001 27.80001,-57.60001 c 0.0335,-0.0666 0.0668,-0.13324 0.1,-0.19999 l 23.3,-48.799998 22.60001,-35.300004 L -128.1,16.799999 c 0.13444,-0.165785 0.26777,-0.332451 0.40001,-0.5 L -106,-13.9 -81.5,-41.599998 -56.299999,-62.799999 -32.400002,-76.300003 -8.8000002,-80.599998 13,-79.199997 l 17.700001,10.099999 22.700001,22.5 20.5,37.7999978 L 99,55.900002 126.1,135.3 l 24.2,87.59999 c 0.033,0.10009 0.0664,0.20009 0.1,0.30001 l 26,92.00001 c 0.12725,0.46842 0.26059,0.93509 0.40001,1.4 l 28.59999,92.1 c 0.41629,1.35098 0.88297,2.6843 1.40001,4 l 33,83 c 0.0988,0.20059 0.19879,0.40061 0.30001,0.59998 l 29.1,70.90002 21.59998,60.70001 c 0.42563,1.21595 0.8923,2.41596 1.40002,3.59998 l 22.09998,51 17.5,45.79999 c 6.92904,18.11755 19.76239,29.6842 38.5,34.70001 l 19.30002,5.20001 12.29998,16.39997 c 11.07099,14.70245 23.96436,16.52697 38.68009,5.47357 14.71573,-11.05341 16.55572,-23.94458 5.51993,-38.67353 l -10,-13.30004 4.1,-15.79999 c 3.05863,-11.81415 2.39197,-23.41413 -2,-34.79999 l -18.1,-46.90002 c -0.37333,-0.97773 -0.77335,-1.94434 -1.20002,-2.89997 L 396.5,587.90002 375.20001,528.09998 C 374.83041,527.05487 374.43042,526.02155 374,525 l -30.10001,-71.29999 -32,-80.6 -28.5,-89.20002 L 257.60001,192.8 c 3e-5,-0.0333 3e-5,-0.0667 0,-0.1 L 232.3,103.8 c -0.2769,-0.90772 -0.5769,-1.80772 -0.90001,-2.7 l -28,-82 C 203.11996,18.259474 202.81996,17.42614 202.5,16.6 l -27.3,-68.899999 c -0.81658,-2.022076 -1.74991,-3.988743 -2.80001,-5.900002 l -26,-47.999999 c -2.74504,-5.11448 -6.2117,-9.68114 -10.39999,-13.7 l -34.3,-32.70001 c -3.217693,-3.02894 -6.751025,-5.62895 -10.600002,-7.79998 l -35,-20 C 48.324375,-184.86044 39.95771,-187.26045 31,-187.60001 l -41,-1.5 c -3.895436,-0.15048 -7.762102,0.11618 -11.6,0.80001 l -38.999998,7 c -6.521889,1.18106 -12.621895,3.48106 -18.300004,6.90001 l -35.699998,21.5 c -3.51591,2.09626 -6.74924,4.56294 -9.7,7.39999 l -30,29.1 c -2.25159,2.2151 -4.28491,4.6151 -6.09999,7.2 l -25.20002,35.299998 c -0.62933,0.88044 -1.22932,1.780442 -1.79998,2.700005 L -208.2,-37.400002 c -0.7153,1.138875 -1.38197,2.305542 -2,3.5 l -17,33.50000199 -23.69999,37.10000101 c -1.4842,2.285198 -2.75086,4.6852 -3.80001,7.200001 l -21.00001,51.400001 -27.4,56.800007 c -0.42852,0.8535 -0.82852,1.72015 -1.19998,2.59999 l -26.30002,65.1 -30.79998,70.40001 c -0.40482,0.98603 -0.77149,1.98603 -1.10001,3 l -26.39999,75.59998 c -0.10355,0.2988 -0.20356,0.59881 -0.30002,0.90002 l -27,84 c -6e-5,0.0333 -6e-5,0.0666 0,0.1 l -28.5,89.5 c -0.0683,0.19946 -0.13501,0.39947 -0.19998,0.60003 l -25,83 c -0.0689,0.23267 -0.13553,0.46601 -0.20002,0.69996 l -19.6,70.20001 -20.4,48.29999 -12.6,23.30004 c 7.23688,-3.22692 12.73688,-8.32696 16.5,-15.30004 l -9,4 c 10.88528,7.95526 22.48529,9.18859 34.80002,3.70001 l -7,-5.09998 -3,-3.60003 -0.10001,-14.29999 c 0,-17.66669 -8.83334,-26.5 -26.5,-26.5 -17.66669,0 -26.5,8.83331 -26.5,26.5" /><path
             id="path110"
             style="fill:#1f1f1f;fill-opacity:1;fill-rule:nonzero;stroke:none"
             d="m -1605.2,-82.599998 3,4.5 4,11.799995 c 0.2494,0.706596 0.516,1.406601 0.8,2.100006 l 13.4,33.899998 22.1,56.099998 23.4,72.299999 25.6999,82.600002 23.6001,94.40001 24.1,99.89999 22,92.89999 c 0.2089,0.90635 0.4423,1.80634 0.7,2.70002 l 23.7,80.1 c 1.1228,3.77484 2.6562,7.37488 4.6,10.79999 l 34,60 c 5.5401,9.81085 13.4401,17.04419 23.7,21.70001 l 49,22.20001 35.0999,30.5 c 13.2668,11.53339 25.6668,10.66669 37.2001,-2.59997 11.5333,-13.26666 10.6668,-25.66669 -2.6,-37.20007 l -32.5,-28.19996 -15.5,-47.80004 c -1.0747,-3.34229 -2.4747,-6.5423 -4.2,-9.59998 l -31.2,-55 -22.1,-72.89999 -21.7,-91.5 c -0.063,-0.33402 -0.13,-0.66733 -0.2,-1 l -25.8,-99.60001 -23.9001,-95.8 c -0.3197,-1.2473 -0.6864,-2.48062 -1.0999,-3.7 l -27.7,-83.5 -24,-73.9000001 c -0.5404,-1.7346654 -1.1737,-3.4346652 -1.9,-5.0999999 l -25.4,-56.300003 c -0.6881,-1.540154 -1.4547,-3.040154 -2.3,-4.5 L -1515.5,-103.9 c -1.3163,-2.26252 -2.8163,-4.39586 -4.5,-6.4 l -11.6,-13.8 c -2.5616,-3.04746 -5.495,-5.68079 -8.8,-7.9 l -9.2,-6.2 c -18.2303,-12.1329 -35.0877,-10.45701 -50.5725,5.02767 -15.4846,15.48468 -17.1604,32.34213 -5.0275,50.572332" /><path
             id="path112"
             style="fill:#1f1f1f;fill-opacity:1;fill-rule:nonzero;stroke:none"
             d="m -976.5,-62 v 45.700001 l -6,34.5 -16,51.700001 -27.2,73.499988 c -0.1743,0.43038 -0.3409,0.86371 -0.5,1.30001 l -33,100 c -0.1408,0.43101 -0.2741,0.86435 -0.4,1.3 l -34.3,117 c -0.1785,0.5632 -0.3451,1.12985 -0.5,1.70001 L -1126.2,492 l -37.3,130.20001 -36.5,125.5 -41.2,114.20001 -39.8,105.5 -37.1,96.09998 c -0.1734,0.4642 -0.3402,0.9309 -0.5,1.4 l -32,90.9001 -28.1,78.3999 c -2.7935,7.8939 -3.6602,15.9938 -2.6001,24.3 l 7.3001,58.9 -10.8001,44.3 c -3.057,16.4837 3.5578,26.7142 19.8442,30.6911 16.2863,3.9768 26.8717,-2.0536 31.7559,-18.091 l 10.7,-43.6001 35.5,-46.8 c 3.6134,-4.7372 6.3468,-9.9372 8.1999,-15.5999 l 25.6001,-78.8001 31.8,-90.4 c 0.069,-0.2328 0.1351,-0.4662 0.2,-0.7 l 32.6,-96.8 39.7,-105.19998 c 0.3653,-0.98931 0.6987,-1.98931 1,-3 l 36.0999,-117.80004 c 0.068,-0.23279 0.1353,-0.46613 0.2001,-0.69996 l 37,-127 c 0.2586,-0.85992 0.4918,-1.72656 0.7,-2.60003 l 30.4,-132.39997 31.9,-127.60003 c 0.035,-0.19977 0.068,-0.39975 0.1,-0.59998 l 27.20001,-117.1 32.5,-98.30001 c 0.0337,-0.0999 0.0671,-0.19986 0.1,-0.3 l 24.40002,-75.5 c 0.034,-0.133141 0.0673,-0.266479 0.1,-0.400002 l 17,-55 c 0.46356,-1.510162 0.8302,-3.043495 1.10003,-4.599998 l 7,-40 c 0.38929,-2.1491957 0.5893,-4.315862 0.59998,-6.5 v -49 c -6e-5,-25 -12.50006,-37.5 -37.50006,-37.5 -25,0 -37.5,12.5 -37.49994,37.5" /></g><g
           transform="matrix(0.01959325,0,0,0.01959325,145.84474,551.16449)"
           id="g114"><path
             id="path116"
             style="fill:#1f1f1f;fill-opacity:1;fill-rule:nonzero;stroke:none"
             d="m 12.2,44.299999 -0.6,13.600003 c -0.257379,4.4024 0.175954,8.735733 1.3,13 l 6.899999,25 L 28.9,141.89999 34.200001,211.8 l 4.899997,101.59999 1.5,119.20002 c -3.4e-5,0.0333 -3.4e-5,0.0666 0,0.1 l 2,130.59998 L 42,697.79999 c 0.0041,0.96771 0.03743,1.93439 0.1,2.90002 l 7,122 c 0.03161,0.23358 0.06495,0.46692 0.100003,0.70001 L 56.799999,931.5 c 0.130863,1.50922 0.330864,3.00922 0.600003,4.5 l 15,91.2 c 0.187126,1.242 0.420463,2.4754 0.699996,3.7 l 16,66 c 7.945366,32.5802 28.210102,44.9057 60.794202,36.9762 32.5841,-7.9294 44.91937,-28.1882 37.00579,-60.7762 L 171.2,1008.4 l -16.4,-87.30002 -10,-104.79999 -6.90001,-120.09998 -2.5,-134 -2,-130.90002 c -0.0297,-0.33371 -0.063,-0.66702 -0.1,-1 l -4.5,-120 c 9.3e-4,-0.16666 9.3e-4,-0.33335 0,-0.5 L 123.8,206.8 c -0.0332,-1.00224 -0.0998,-2.00224 -0.2,-3 L 115.1,131 c -0.15223,-1.17485 -0.35223,-2.34152 -0.6,-3.5 l -10,-50 c -0.58155,-2.888252 -1.44821,-5.688248 -2.6,-8.400002 L 91.199997,43.799999 C 87.997971,36.251488 82.997971,30.18482 76.199997,25.6 L 64.900002,18 C 53.993187,10.619601 42.648087,9.8696604 30.864697,15.750177 19.081306,21.630693 12.859741,31.147301 12.2,44.299999" /><path
             id="path118"
             style="fill:#1f1f1f;fill-opacity:1;fill-rule:nonzero;stroke:none"
             d="m -207,2099.6001 h 7 c -5.80527,-5.8779 -12.83861,-8.8113 -21.10001,-8.8001 l 7.90001,8 c 0.42202,0.4124 0.85535,0.8123 1.30001,1.2 l 6.39999,5.8999 c 4.52495,4.124 9.75829,6.9241 15.7,8.4001 l 13.19999,3.2 c 11.99689,3.0071 22.99689,0.8738 33,-6.3999 l 22.00001,-16 c 2.22399,-1.6218 4.25733,-3.4551 6.1,-5.5 l 30.900002,-34.2002 c 2.914405,-3.2031 5.281074,-6.7698 7.099998,-10.6999 l 28,-61 c 0.24564,-0.5616 0.478973,-1.1282 0.700001,-1.7 l 31,-76.2 c 0.137375,-0.3316 0.270708,-0.6649 0.399999,-1 l 32.6,-85.9 36.200002,-82.2 c 0.101005,-0.1662 0.201004,-0.3328 0.299999,-0.5 L 83.300003,1662.1 114.1,1597.6 c 0.0676,-0.1664 0.13428,-0.333 0.2,-0.5 l 25.2,-54.2 18.89999,-33.2 c -12.10183,4.0384 -21.30183,11.6052 -27.59999,22.7 l 12,-4 c -2.39122,-15.2464 -10.17938,-26.8799 -23.36448,-34.9002 -13.18511,-8.0204 -27.09695,-9.5871 -41.735523,-4.6997 L 82.5,1519 85.300003,1590.8001 84.5,1694.6 l -1,123 c -0.02023,0.8333 -0.02023,1.6666 0,2.5 l 5.400002,133 c -0.0039,0.3666 -0.0039,0.7333 0,1.1 l 8,130 c -5.12e-4,0.1333 -5.12e-4,0.2666 0,0.4001 L 111.4,2290.5 l 4.6,73.5 2.9,58.7 c 0.51473,9.7983 3.51473,18.7651 9,26.9001 l 18.6,27.8999 0.8,27.3 c 0.53932,17.7938 9.70594,26.4241 27.49982,25.8907 17.7939,-0.533 26.42729,-9.6966 25.90018,-27.4907 l -0.80001,-27 17.40001,-28.5 c 5.73464,-9.3289 8.33464,-19.4622 7.80001,-30.4 l -3,-59 c -0.0295,-0.3669 -0.0628,-0.7336 -0.10001,-1.1 l -5.39999,-74 c 1.3e-4,-0.067 1.3e-4,-0.1333 0,-0.2 l -15.5,-205.6001 -8,-129.2999 -6.60001,-131.2 1,-121.5 c 0.002,-0.2667 0.002,-0.5333 0,-0.8 l -0.8,-105 c -0.0249,-0.5338 -0.0582,-1.0672 -0.1,-1.6 l -3,-76 c -0.0769,-2.7577 -0.37691,-5.4911 -0.90001,-8.1999 l -6.8,-32.8001 c -2.98213,-14.6815 -10.95834,-25.7711 -23.92862,-33.2687 -12.97026,-7.4974 -26.56072,-8.8746 -40.77137,-4.1313 l -12.000003,4 c -14.09388,4.7007 -24.09388,13.8673 -30,27.5 l -15.799995,36.3 -25.700001,55.5 c -0.205651,0.3971 -0.405651,0.797 -0.600001,1.2 l -28.7,66.5 c -0.033504,0.067 -0.066837,0.1332 -0.1,0.2001 L -33.700001,1699.8 c -0.172291,0.3976 -0.338959,0.7975 -0.5,1.2 l -33.200001,84.7 c -0.0677,0.1662 -0.134368,0.3328 -0.199996,0.5 l -33.000002,87 c -0.13904,0.3981 -0.27237,0.7982 -0.4,1.2 l -26.3,75.8 -25.5,55.4 -20.80001,29.1 -10.5,7.6 -5.69999,1.4 c -1.15142,0.3109 -2.28475,0.6776 -3.4,1.1 l -8.3,2.9 c 8.34415,4.9116 17.07748,5.7448 26.2,2.5 l -9.80001,-5.7 c -4.59707,-2.7098 -9.56373,-4.0764 -14.89999,-4.1 h -7 c -19.73335,10e-5 -29.60004,9.8668 -29.60004,29.6002 0,19.7332 9.86669,29.5999 29.60004,29.5999" /></g><g
           transform="matrix(0.01959325,0,0,0.01959325,306.35165,551.164)"
           id="g120"><path
             id="path122"
             style="fill:#1f1f1f;fill-opacity:1;fill-rule:nonzero;stroke:none"
             d="M 30.200001,30.4 26.6,34 C 16.236191,44.551281 13.036192,56.951279 17,71.199997 l 7.6,27.700005 c 0.615355,2.234848 1.415354,4.401508 2.4,6.499998 l 15.200001,32.1 14.099998,39.89999 c 0.03296,0.10012 0.0663,0.20012 0.100003,0.30001 l 20.299995,56 17.100006,68.3 15.399997,76.89999 9.8,89.4 6.8,94.70001 1.2,101.79999 -5.8,93.90002 -10.2,90.09998 -10.8,80.40002 c -4e-5,0.0333 -4e-5,0.0666 0,0.1 l -8.000003,61 c -2.692619,32.47209 12.112943,50.83839 44.416713,55.09889 32.30376,4.2605 51.36486,-9.6391 57.18329,-41.6989 l 8,-60.99997 c 0.036,-0.29968 0.0693,-0.59967 0.1,-0.90002 l 9.20002,-81.09998 c 0.0418,-0.5329 0.0751,-1.06622 0.1,-1.60003 L 218.8,767 c 0.0368,-0.33301 0.0701,-0.66632 0.1,-1 l 6,-97 c 0.0921,-1.73334 0.0921,-3.46667 0,-5.20001 l -4.7,-104.89997 c -0.0273,-0.43377 -0.0607,-0.86712 -0.1,-1.30004 l -7,-96.99997 c -0.0847,-1.23856 -0.21801,-2.4719 -0.40001,-3.70002 l -14,-91.69998 c -0.0836,-0.70236 -0.1836,-1.40234 -0.30001,-2.1 l -16,-80 C 182.08055,281.54565 181.68056,280.0123 181.2,278.5 l -22,-70.39999 c -0.18682,-0.60439 -0.38681,-1.2044 -0.59999,-1.80001 l -21,-58 C 137.13017,146.97394 136.59685,145.67393 136,144.39999 L 116.9,104.5 101,70.599998 88.800003,44.700001 C 80.820534,27.60973 67.487198,20.343063 48.799999,22.9 l -5,0.7 c -5.304645,0.724038 -9.837978,2.990704 -13.599998,6.8" /><path
             id="path124"
             style="fill:#1f1f1f;fill-opacity:1;fill-rule:nonzero;stroke:none"
             d="m -182.3,1755.9 7.19999,-7.9 c 1.3832,-1.4845 2.61654,-3.0846 3.70002,-4.8 l 6.59999,-10.7 14.5,-10.5 c 2.23581,-1.6461 4.26915,-3.5127 6.1,-5.6 l 12.30001,-13.9 c -6.93985,-12.5425 -17.53418,-19.5959 -31.78299,-21.1603 -14.24881,-1.5644 -26.12116,3.0224 -35.61702,13.7603 l 1.8,3.2 c 2.21904,-10.6696 0.68571,-20.7696 -4.60001,-30.3 l -4.89999,23.5 -12.3,52.9 c -0.334,1.4208 -0.60067,2.854 -0.80001,4.3 l -11,81 c -0.0703,0.3326 -0.13697,0.6658 -0.19999,1 l -10.7,93.7 c -0.0456,0.6327 -0.0789,1.266 -0.10001,1.9 l -7,93 c -0.12362,1.3639 -0.19029,2.7305 -0.19999,4.1 l 0.69999,89.9999 c 0.004,2.8191 0.23722,5.6191 0.70002,8.4001 l 14,81 c 0.53973,3.0042 1.33973,5.9375 2.39999,8.8001 l 23,63.6999 c 1.45305,3.9922 3.35306,7.7588 5.7,11.3001 l 33,50 c 3.18828,4.8245 7.05494,9.0244 11.6,12.5999 l 37.1,29.1999 c 5.66595,4.4688 11.96595,7.7022 18.9,9.7002 l 41.999999,12 c 3.700566,1.0264 7.467232,1.6597 11.299999,1.8999 L -5,2405.2 c 2.5999982,0.1806 5.19999814,0.1806 7.8,0 l 43.999999,-3 c 1.13739,-0.099 2.270725,-0.232 3.400002,-0.4 l 44.999996,-5.8 c 2.601479,-0.3213 5.168153,-0.8213 7.700003,-1.5 l 43.99999,-12 c 3.45382,-0.9495 6.78716,-2.2163 10,-3.8 l 43,-21.0999 c 13.05492,-6.4082 22.25492,-16.375 27.60001,-29.9001 l 13.3,-33.8001 29.30001,-23.5 c 13.68731,-11.4614 14.9588,-24.1655 3.81445,-38.1121 -11.14438,-13.9465 -23.81587,-15.5092 -38.01447,-4.6877 L 208.10001,2249.8 173.7,2250.6001 c -8.21527,0.1951 -16.01528,2.0952 -23.4,5.6999 l -38.3,18.5999 -35.300003,9.6001 -39.499996,5.3999 -39.6000011,2.7002 L -36.700001,2292 -63.099998,2284.3999 -85.900002,2268.7 -110.6,2231.3999 l -22.6,-52.2998 -12.40001,-72 -5,-83.7001 6.70002,-89.7 c 0.0361,-0.2996 0.0694,-0.5995 0.1,-0.9 l 5.19999,-92.4 10.70001,-79.1 7.3,-52.8 4.7,-22.5 c 3.12913,-14.9226 -0.51405,-27.9515 -10.92954,-39.0868 -10.41549,-11.1354 -23.17231,-15.6398 -38.27047,-13.5132 l -3.59999,0.5 c -15.67042,2.1855 -26.53709,10.5855 -32.6,25.2 l -6.7,16 -9.39999,19 -8,12.8 -5.40001,6.5 c -14.16667,16.1667 -13.16667,31.3334 2.99998,45.5 16.16667,14.1668 31.33335,13.1668 45.50002,-3" /><path
             id="path126"
             style="fill:#1f1f1f;fill-opacity:1;fill-rule:nonzero;stroke:none"
             d="m 301.79999,1809.8 7,-0.4 c -5.80249,-3.4303 -12.06916,-4.9636 -18.79999,-4.6 l 10.5,6.2 c -2.40378,-8.2416 -7.30377,-14.5415 -14.70001,-18.9 l 8.20001,28.3 6.20001,55.4 4.9,82 -7.20002,102.7 c -7.3e-4,0.1333 -7.3e-4,0.2666 0,0.3999 L 291,2177.8 277,2295.1001 c -0.09,0.7981 -0.15668,1.5979 -0.20001,2.3999 l -7,113.1001 -10.69998,104.6999 c -0.13712,1.0633 -0.23713,2.1299 -0.30002,3.2 l -2.9,91.1001 -5.39999,73.7998 c -0.0597,0.9324 -0.093,1.8657 -0.10001,2.8001 l -1,62 c -0.13688,7.7756 1.46311,15.1755 4.80001,22.1999 L 271.70001,2807 v 32 c 0.0171,17.5164 8.78379,26.2744 26.29999,26.2744 17.51624,0 26.2829,-8.758 26.29999,-26.2744 v -31.5 l 18.6,-35.3999 c 3.66935,-6.9812 5.56937,-14.4146 5.70002,-22.3001 l 1,-62 c 0.0109,-0.6 0.0109,-1.2001 0,-1.8 l -1.4,-73.7 3,-90.8 c 0.004,-0.3333 0.004,-0.6667 0,-1 l 1.09998,-105 6.90002,-113 c 0.0392,-0.3994 0.0725,-0.7993 0.1,-1.2 l 3.80002,-118.6 7,-117.5999 c 0.05,-0.6326 0.0833,-1.2659 0.1,-1.9001 l 0.69998,-105 c -0.0109,-0.7011 -0.0443,-1.4012 -0.1,-2.1 l -5,-85 c -0.042,-0.7355 -0.10871,-1.4689 -0.19998,-2.2 l -7.4,-58.9 c -0.19699,-1.7268 -0.5303,-3.4268 -1,-5.1 l -9,-31 c -1.88507,-6.4253 -5.41839,-11.7586 -10.6,-16 l -9.4,-7.7 c -5.63498,-4.6563 -12.10165,-7.1896 -19.40002,-7.6 l -7,-0.4 c -22.53336,0 -33.80005,11.2667 -33.80005,33.8 0,22.5333 11.26669,33.8 33.80005,33.8" /></g><g
           transform="matrix(0.01959325,0,0,0.01959325,396.63812,215.10114)"
           id="g128"><path
             id="path130"
             style="fill:#1f1f1f;fill-opacity:1;fill-rule:nonzero;stroke:none"
             d="M 0,64 V 74 C 0,91.673111 6.2483883,106.75805 18.745165,119.25483 31.241941,131.7516 46.326885,137.99998 64,138 c 17.673111,-2e-5 32.758057,-6.2484 45.25483,-18.74517 C 121.7516,106.75805 127.99999,91.673111 128,74 V 64 C 127.99999,46.326885 121.7516,31.241941 109.25483,18.745165 96.758057,6.2483883 81.673111,0 64,0 46.326885,0 31.241941,6.2483883 18.745165,18.745165 6.2483883,31.241941 0,46.326885 0,64" /></g><g
           transform="matrix(0.01959325,0,0,0.01959325,95.686523,518.55963)"
           id="g132"><path
             id="path134"
             style="fill:#1f1f1f;fill-opacity:1;fill-rule:nonzero;stroke:none"
             d="m 16.1,146 c 2e-6,20.60001 10.300002,30.90001 30.9,30.90001 20.600006,0 30.900002,-10.3 30.900002,-30.90001 C 77.900002,125.4 67.600006,115.10001 47,115.10001 26.400002,115.10001 16.100002,125.4 16.1,146 M 60,183.8 77.800003,181 c 2.519264,-0.38374 4.985931,-0.98375 7.399994,-1.8 L 107.1,171.60001 143.3,166.7 c 0.16686,-0.0324 0.33351,-0.0658 0.5,-0.1 l 52.5,-7.6 72.59999,-2.8 c 1.26926,-0.0177 2.53592,-0.0844 3.80002,-0.2 l 86,-10 c 1.00516,-0.1358 2.00516,-0.30248 3,-0.5 L 460,127.8 c 0.0667,1.3e-4 0.13333,1.3e-4 0.20001,0 l 100.5,-18.6 97.20001,-7.9 96.69996,-2.999997 c 2.62042,-0.06737 5.22045,-0.334045 7.80004,-0.800003 l 84.79999,-15.900002 71.39997,12.200005 c 16.55792,2.048744 26.23938,-5.150269 29.04431,-21.597061 2.80493,-16.446789 -3.94318,-26.447769 -20.24427,-30.002941 L 853.79999,29.6 l -83,-30.8 c -6.26508,-2.2949327 -12.73175,-3.328266 -19.39997,-3.1000002 l -98,3.0000003 c -1.10217,0.031202 -2.20221,0.097869 -3.30004,0.1999999 l -101,9.7000004 c -1.44196,0.1384525 -2.87525,0.3384523 -4.29999,0.5999994 l -103,19.0000012 c -0.36783,0.09587 -0.73447,0.195867 -1.09998,0.299999 l -95.6,19.799999 L 261.79999,58 187.5,65.099998 c -0.76912,0.08112 -1.5358,0.18113 -2.3,0.300004 l -55,8 c -2.54641,0.361885 -5.04641,0.92855 -7.5,1.699996 L 83.800003,87.5 c -0.334534,0.09601 -0.66787,0.196007 -1,0.300003 l -26.000004,9 C 51.373806,98.672264 46.507141,101.5056 42.200001,105.3 L 28.6,117.3 C 14.259613,129.99795 11.178614,145.00716 19.357,162.32761 27.535387,179.64807 41.083054,186.80554 60,183.8" /><path
             id="path136"
             style="fill:#1f1f1f;fill-opacity:1;fill-rule:nonzero;stroke:none"
             d="m -797.40002,391.39999 7,0.30002 c 4.41766,0.16538 8.71765,-0.46795 12.90002,-1.90002 l 17.40002,-6 c 2.78528,-0.95075 5.41858,-2.21741 7.89997,-3.79999 l 25,-16 c 1.8139,-1.15109 3.51391,-2.45111 5.10003,-3.89999 l 34.89997,-32 c 2.24896,-2.09537 4.21563,-4.42868 5.90002,-7 l 38,-57 c 0.20343,-0.26404 0.40344,-0.5307 0.59998,-0.80002 l 50.29999,-80.19998 c 0.346,-0.52541 0.67932,-1.05875 1,-1.60001 l 53,-94 54.70001,-97 c 0.241,-0.429203 0.47433,-0.862536 0.70001,-1.3 l 51,-98 c 0.10117,-0.16598 0.20114,-0.33264 0.29999,-0.5 l 43.20001,-86.2 37.89999,-67.39999 c 0.24042,-0.42954 0.47376,-0.86286 0.70002,-1.30002 l 28,-54 c 0.35293,-0.7244 0.68624,-1.45774 1,-2.19998 l 20.39999,-44.80002 11.70001,-24.5 c -7.67456,4.78537 -13.47458,11.25204 -17.40002,19.40002 l 5.80002,-3.6 c -2.31296,-17.44086 -11.42624,-29.91266 -27.33982,-37.41538 -15.9136,-7.50275 -31.33365,-6.59762 -46.26019,2.71536 l 1.39999,10.4 -2.19998,37.30002 c -0.0177,0.76663 -0.0177,1.53329 0,2.29998 l -1,77.5 -3.30002,111.60001 c -0.0354,0.2664 -0.0688,0.53308 -0.1,0.8 l -2,136.900001 L -383.39999,117.2 c -8.3e-4,0.16666 -8.3e-4,0.33333 0,0.5 l -1,150.90001 -1,141 c -0.007,1.20111 0.0262,2.40112 0.1,3.6 l 7,118 c 0.0515,0.73468 0.11817,1.46802 0.19998,2.20001 l 9,88 c 4.56275,34.2005 24.00733,49.5553 58.33374,46.06446 34.32642,-3.49085 50.28183,-22.44568 47.86628,-56.8645 l -8.9,-86.89997 -6.80002,-115.5 -1,-139.20001 1,-150.7 c 5.2e-4,-0.13333 5.2e-4,-0.26666 0,-0.4 l -0.19998,-148.600001 2,-136.599999 c 5.2e-4,-0.13333 5.2e-4,-0.26667 0,-0.4 l 0.59998,-111.8 1,-77.89999 c 0.004,-0.36667 0.004,-0.73334 0,-1.10001 l -0.4,-42 c -0.013,-1.97482 -0.1463,-3.9415 -0.39999,-5.89999 l -2,-15 c -2.97452,-22.53208 -15.57056,-36.1919 -37.78809,-40.9795 -22.21753,-4.78762 -39.3215,2.4722 -51.31192,21.77948 l -3.6,5.80002 c -0.91596,1.45407 -1.7493,2.95407 -2.5,4.5 l -12,25 c -0.62583,1.2742 -1.19248,2.57422 -1.69998,3.9 l -16.4,44 -26.80002,51.6 c -0.0337,0.0999 -0.067,0.19986 -0.1,0.29999 l -35.59998,69.7 c -0.31384,0.59308 -0.61386,1.19308 -0.90002,1.8 L -506.5,-146.3 -557,-49.200001 -607.90002,49.099998 -660.5,142.3 l -46.90002,80.5 -35.39997,53.09999 -27.60003,28.4 -19.59998,12.5 -14.59998,7.1 c 4.98487,-0.20773 9.71821,-1.40774 14.19996,-3.6 l -7,0.30002 c -23.59998,0 -35.39997,11.79998 -35.39997,35.39999 0,23.60001 11.79999,35.39999 35.39997,35.39999" /></g><g
           transform="matrix(0.01959325,0,0,0.01959325,93.177925,235.16298)"
           id="g138"><path
             id="path140"
             style="fill:#1f1f1f;fill-opacity:1;fill-rule:nonzero;stroke:none"
             d="m 18.9,171 c 2e-6,22.73334 11.366666,34.10001 34.1,34.10001 22.73333,0 34.099991,-11.36667 34.099998,-34.10001 C 87.099991,148.26668 75.73333,136.90001 53,136.90001 30.266666,136.90001 18.900002,148.26668 18.9,171 m 55.299997,48.7 24,-7 c 0.976761,-0.30408 1.943433,-0.63741 2.900003,-1 l 41.00001,-14.59999 63.5,-18.30001 86.29998,-21.19999 103.4,-21.5 L 510.70001,119.4 624.59998,107.8 731.5,108.4 824,119.7 899.79999,135.39999 962.09998,158 c 7.86578,2.86963 15.96575,3.90297 24.30004,3.10001 L 1030.3001,156.8 1062.6,171.7 c 15.7272,5.71351 27.0969,0.97387 34.109,-14.21892 7.0121,-15.1928 3.2424,-26.91982 -11.309,-35.18108 L 1052.3001,107 1024.5,71.699997 C 1017.9777,63.468231 1009.7777,57.568233 999.90002,54 l -66,-24 c -2.51355,-0.919346 -5.0802,-1.652679 -7.70001,-2.200001 l -82,-16.999999 c -1.48901,-0.328599 -2.98901,-0.595265 -4.5,-0.8 l -98,-12 c -2.32489,-0.2812846 -4.65826,-0.4146178 -7,-0.4000001 l -113,0.6000001 c -1.7381,0.017532 -3.47143,0.1175324 -5.20001,0.3 l -118,12 c -1.07059,0.10193 -2.13724,0.235263 -3.20001,0.4 L 377.5,29.799999 c -0.80301,0.115273 -1.603,0.248606 -2.39999,0.400002 l -106,22 c -1.17673,0.260868 -2.34342,0.560867 -3.5,0.899997 L 178,77.300003 c -0.16701,0.06581 -0.33368,0.132477 -0.5,0.199997 l -66,19 c -2.46323,0.691566 -4.86323,1.558235 -7.2,2.599998 L 66.300003,116.4 45.799999,122.3 c -32.446197,9.47791 -43.9382694,30.44226 -34.476212,62.89308 9.462052,32.45084 30.420789,43.95313 62.87621,34.50692" /></g><g
           transform="matrix(0.01959325,0,0,0.01959325,95.685776,114.78341)"
           id="g142"><path
             id="path144"
             style="fill:#1f1f1f;fill-opacity:1;fill-rule:nonzero;stroke:none"
             d="m 13,140 c 0,21.33333 10.666666,32 32,32 21.333336,0 32,-10.66667 32,-32 0,-21.33334 -10.666664,-32 -32,-32 -21.333334,0 -32,10.66666 -32,32 M 61.299999,179.60001 79,175.39999 C 80.626801,175.02522 82.226799,174.55855 83.800003,174 L 105.2,166.3 l 37,-6.5 52.1,-7.6 71.80001,-3.2 c 0.96872,-0.0368 1.93539,-0.10342 2.89999,-0.2 l 92.79999,-10 108.40002,-10.5 117.09998,-9 117.29999,-7.1 112.60003,-5 c 0.80078,-0.0138 1.60077,-0.0472 2.39997,-0.1 l 102.5,-9.6 95.40002,-3 c 3.9003,-0.114326 7.7336,-0.680992 11.5,-1.699997 l 81.1,-22 69.2001,1.899994 c 15.791,-0.893791 23.9018,-9.245911 24.3323,-25.056351 0.4307,-15.810442 -7.2134,-24.591657 -22.9324,-26.343647 l -69.8999,-2 L 1029,-2.8 c -4.749,-1.2858274 -9.5823,-1.852494 -14.5,-1.7 l -97,3 c -1.13556,0.027728 -2.26892,0.094395 -3.40002,0.2000001 L 811.5,8.8000002 699.79999,13.8 c -0.50049,0.02571 -1.00049,0.05904 -1.5,0.1 l -117.89997,8.800001 c -0.0334,-3.5e-5 -0.0667,-3.5e-5 -0.10003,0 l -118,9 c -0.73483,0.04992 -1.46817,0.116592 -2.19998,0.199999 l -108.5,13.399999 -92.20002,9.900002 -73.5,6.599998 c -0.80267,0.07864 -1.60267,0.178635 -2.39999,0.299999 l -55,8 c -1.72115,0.268601 -3.42115,0.63527 -5.1,1.099999 L 82.900002,81.900002 C 81.650414,82.212013 80.417076,82.578682 79.199997,83 l -24.999996,9 c -2.761322,1.00058 -5.394657,2.26725 -7.900002,3.800003 l -15.5,9.499997 c -19.59692,12.09239 -25.0230634,28.78984 -16.27843,50.09235 8.744638,21.30252 24.337447,29.37173 46.77843,24.20766" /></g><g
           transform="matrix(0.01959325,0,0,0.01959325,68.098434,222.62323)"
           id="g146"><path
             id="path148"
             style="fill:#1f1f1f;fill-opacity:1;fill-rule:nonzero;stroke:none"
             d="m 277.79999,342.60001 3,-2.70002 10.80002,-3.79998 c 2.08865,-0.74332 4.08865,-1.67664 6,-2.80002 L 318.70001,321 c 3.43439,-1.96991 6.50104,-4.40323 9.19998,-7.29999 l 19.80002,-21.30002 c 4.39578,-4.75467 7.56244,-10.22134 9.5,-16.39999 L 364.5,252.7 c 2.42145,-7.66967 2.78812,-15.43633 1.10001,-23.30001 L 359.70001,202 c -1.47864,-6.90161 -4.3453,-13.16827 -8.6,-18.8 l -19.20002,-25.4 c -6.03158,-7.98903 -13.76492,-13.6557 -23.19998,-17 l -31,-11 c -3.12396,-1.08412 -6.32397,-1.85078 -9.6,-2.3 L 230.5,122.1 c -6.27559,-0.89565 -12.50893,-0.66231 -18.7,0.7 l -41,9 c -4.09709,0.89537 -8.03042,2.26203 -11.8,4.09999 L 120.8,154.5 c -3.99025,1.95253 -7.69025,4.35254 -11.1,7.2 l -36.000003,30 C 68.267509,196.22015 63.867508,201.58682 60.5,207.8 l -23.099998,42.9 c -3.117299,5.77931 -5.183964,11.91264 -6.200001,18.40001 l -10,64 C 20.708971,336.21414 20.475637,339.34747 20.5,342.5 l 0.6,79 c 0.04139,3.42862 0.374722,6.82861 1,10.20001 l 16.999998,94 c 0.525124,2.88721 1.258458,5.72052 2.200001,8.5 l 34.100003,100.70001 c 0.698532,2.00794 1.498535,3.97461 2.400001,5.89997 l 45.999997,100 c 0.0333,0.0334 0.0666,0.0668 0.1,0.10003 l 48.3,104.79999 c 0.47517,0.97949 0.97517,1.94617 1.5,2.89997 l 50.19999,95.5 L 264,1031.9 294.10001,1106 311,1167.2 l 8.79999,45.6001 -1.4,17.7999 -1.6,2.8 -6.4,4.9001 2.20002,-0.6001 10.19998,4.7 -8,-13.3 -8.5,-52.7 5.20001,-85.3 19,-115.1 30,-129 38.20001,-137.29999 42.9,-136.40002 L 484,453.70001 528.40002,357.5 571.5,274.20001 614.40002,203.39999 c 6.693,-11.03486 10.25965,-23.00152 10.69996,-35.89999 l 1.40002,-41.3 26.40002,-25 C 668.36676,86.599976 668.80011,71.566635 654.20007,56.099964 639.60004,40.633297 624.56665,40.199974 609.09998,54.799999 L 579.5,82.699997 534.90002,92.599998 C 514.14569,97.218597 498.31238,108.65193 487.39999,126.9 L 443.60001,200 c -0.80832,1.30937 -1.57499,2.6427 -2.30002,4 l -45,87 c -0.60065,1.21771 -1.1673,2.45105 -1.69998,3.70001 l -45.5,101.19998 c -0.84372,1.83503 -1.61039,3.70169 -2.30002,5.60001 l -44,124 c -0.35626,1.02594 -0.68961,2.05927 -1,3.09998 l -42.4,139.20001 c -0.17358,0.56463 -0.34024,1.13128 -0.5,1.70001 l -39,140 c -0.3358,1.29175 -0.6358,2.59174 -0.89999,3.90002 l -29.2,133.19996 c -0.26564,1.22723 -0.49896,2.46057 -0.69999,3.70001 l -20,121.00011 c -0.47672,2.8817 -0.77672,5.7816 -0.90001,8.6999 l -4.09999,97 c -0.19097,4.8307 0.10903,9.6307 0.89999,14.4 l 12,74 c 1.59909,9.8817 5.13243,19.015 10.60001,27.4001 l 27.79998,42.5 c 8.16527,12.4957 19.19861,21.4624 33.10001,26.8999 l 33.39999,13 c 14.43091,5.64 29.09757,6.34 44,2.1001 l 35,-10 c 9.77109,-2.7718 18.50443,-7.4718 26.20002,-14.1001 L 413.5,1330.4 c 5.84186,-5.0738 10.6752,-10.9738 14.5,-17.7 l 16,-28 c 5.72458,-10.0424 8.69122,-20.8423 8.89999,-32.3999 l 0.80002,-42.1001 c 0.0802,-4.6418 -0.31976,-9.2417 -1.20001,-13.8 l -11,-57 c -0.50943,-2.6402 -1.17612,-5.2403 -2,-7.8 l -21.29999,-66.5 c -0.50906,-1.5547 -1.07571,-3.088 -1.70001,-4.6 l -32,-79 c -0.64059,-1.56049 -1.34058,-3.09381 -2.10001,-4.59998 l -44.5,-89.30004 c -0.19577,-0.40204 -0.39578,-0.80207 -0.6,-1.19996 L 286.60001,790 235.8,688.20001 191.10001,591 155.89999,498.89999 140.5,413.60001 135.8,344.5 l 8,-50.79999 10.80001,-26 L 177.8,248.39999 202.60001,232.2 228.3,226.60001 l 23.7,0.29998 12.70001,4.5 L 272,238.7 l 2.5,6.40001 -0.60001,5.09999 -7.79998,14.8 -10.90001,13 -11.4,9.39999 c -2.21869,1.83731 -4.15202,3.93732 -5.8,6.30002 l -6.10001,8.59998 c -10.7156,15.05542 -9.13012,28.67932 4.75646,40.8717 13.88656,12.19235 27.60109,12.0018 41.14354,-0.57168" /></g><g
           transform="matrix(0.01959325,0,0,0.01959325,68.098648,109.76677)"
           id="g150"><path
             id="path152"
             style="fill:#1f1f1f;fill-opacity:1;fill-rule:nonzero;stroke:none"
             d="m 19.4,528 c -2e-6,19.06665 9.533331,28.59998 28.6,28.59998 19.066666,0 28.599998,-9.53333 28.599998,-28.59998 0,-19.06668 -9.533332,-28.60001 -28.599998,-28.60001 -19.066669,0 -28.600002,9.53333 -28.6,28.60001 m 51.000002,37.40002 17,-7 C 91.263336,556.81329 94.796669,554.67993 98,552 l 27.1,-22.70001 c 1.26659,-1.06281 2.46658,-2.19617 3.6,-3.39997 l 33,-35.00003 c 1.62019,-1.71054 3.08686,-3.54385 4.40001,-5.5 L 198.2,437.20001 c 0.56369,-0.84799 1.09703,-1.71466 1.6,-2.6 l 31.4,-55 34.09999,-52.80002 36.6,-53.5 c 0.23716,-0.29703 0.47049,-0.59702 0.70002,-0.9 l 32.69998,-50.5 c 0.0334,-0.0333 0.0667,-0.0666 0.1,-0.1 l 31,-48 c 0.45383,-0.7212 0.88718,-1.45453 1.30002,-2.19999 l 24.69998,-43.3 20.80002,-28.8 17.19998,-14.599998 C 416.65326,83.469528 404.51993,87.236198 394,96.199997 l 15.89999,1.600006 C 403.47382,77.224617 389.54047,65.824615 368.10001,63.599998 l 7.5,23.800004 L 373.20001,141 366.5,228.2 349.79999,335.20001 c -5.2e-4,0.13333 -5.2e-4,0.26666 0,0.4 l -18,122 c -0.0723,0.43246 -0.13892,0.86581 -0.19998,1.29998 l -15.70002,128.9 c -0.0366,0.33301 -0.0699,0.66632 -0.1,1 l -12,118 c -0.036,0.29968 -0.0693,0.59967 -0.1,0.90002 l -8.40002,99.89997 c -0.0437,0.59942 -0.0771,1.19946 -0.1,1.80004 l -4,80 c -0.1199,2.30219 -0.0866,4.60218 0.1,6.89997 l 4.70001,57 c 1.66995,20.03998 11.60327,34.34002 29.79999,42.90002 l 22.80002,10.69999 15.69998,15.8 c 12.4667,12.4668 24.93338,12.4668 37.40005,10e-5 12.46668,-12.4667 12.46668,-24.93338 -3e-5,-37.40011 l -7.80002,-7.79999 4,-13.29999 c 2.0087,-6.52923 2.70871,-13.19592 2.10001,-20 l -5,-53.29999 3.79999,-75.70001 7.40002,-98.70001 11.9,-117.09998 14.3,-127.90002 17.80002,-121.10001 c 0.0341,-0.1665 0.0675,-0.33316 0.1,-0.5 l 15.1,-109.09999 c 0.12833,-0.96373 0.22834,-1.93039 0.30002,-2.90001 l 7,-90 c 0.0615,-0.96568 0.0949,-1.93235 0.1,-2.89999 l 1.30002,-63 c 0.11184,-5.319191 -0.62149,-10.519196 -2.20002,-15.599998 l -10,-32 C 454.90488,11.919254 439.63821,0.41925517 416.10001,-0.1 L 400,-0.40000001 C 386.59702,-0.69188547 375.06366,3.8081141 365.39999,13.1 L 345,32.700001 c -2.48642,2.394039 -4.68643,5.027374 -6.60001,7.899997 l -24.29998,36.5 C 313.15314,78.519272 312.28647,79.985939 311.5,81.5 l -23.10001,44.5 -29.79998,46.2 c -0.23859,0.36334 -0.47193,0.73001 -0.70002,1.1 l -30.5,50.4 -36.29998,53.00001 c -0.56096,0.81565 -1.09429,1.64899 -1.60001,2.5 l -33,55.59998 c -0.10155,0.19922 -0.20154,0.39923 -0.3,0.6 L 124.4,391 97.199997,436.39999 67.599998,467.70001 49,486.70001 l -9.400002,3.9 c -23.182044,10.97042 -29.8905635,28.31314 -20.125553,52.02816 9.765011,23.71503 26.740193,31.30567 50.925557,22.77185" /><path
             id="path154"
             style="fill:#1f1f1f;fill-opacity:1;fill-rule:nonzero;stroke:none"
             d="m 516.70001,444 v 7 c 0.002,4.32764 0.73572,8.52765 2.20001,12.60001 l 6.19996,17.29998 c 1.28387,3.52781 3.05059,6.7945 5.30004,9.80002 l 15.09998,20.4 c 4.98175,6.68686 11.4151,11.38687 19.29999,14.1 l 26,9 c 7.35138,2.552 14.81805,2.95203 22.40002,1.20001 L 653.79999,526 c 3.74994,-0.88831 7.31665,-2.25494 10.70001,-4.09998 l 48,-26.00003 c 2.45245,-1.34283 4.75244,-2.90948 6.90002,-4.69998 L 771.90002,448 c 0.57917,-0.48587 1.14582,-0.98587 1.69996,-1.5 l 58,-53 c 0.58172,-0.55161 1.14837,-1.11829 1.70001,-1.70001 l 59.60003,-60.5 c 0.54731,-0.55353 1.08063,-1.12018 1.59998,-1.69998 L 951.29999,265.79999 1004.6,207.5 c 1.0932,-1.18312 2.1266,-2.41646 3.1,-3.7 l 40.6001,-54 30.3999,-33.3 c 0.546,-0.5548 1.0793,-1.12147 1.6001,-1.7 L 1092.2,100.6 c 13.0908,-28.426843 6.4405,-51.050867 -19.9508,-67.872072 C 1045.8578,15.906723 1022.5414,19.430746 1002.3,43.299999 L 995.79999,57.200001 972.09998,102.5 c -1.30524,2.54761 -2.40528,5.18094 -3.29999,7.9 l -26,76.99999 c -0.13727,0.36525 -0.27057,0.73192 -0.39997,1.10001 L 910.79999,289 c -0.46161,1.48358 -0.86157,2.98358 -1.20001,4.5 l -28,124 c -0.1839,0.79642 -0.35059,1.59641 -0.5,2.39999 l -23.39997,128.69999 c -0.20013,1.12841 -0.36682,2.26178 -0.5,3.40002 l -15,124 c -0.0832,0.79865 -0.1499,1.59863 -0.20001,2.40002 l -9.09998,113.89997 c -0.0416,0.56616 -0.0749,1.13281 -0.10003,1.70001 l -5,98 c -0.11896,2.16663 -0.11896,4.33331 0,6.5 L 832,970.59998 c 1.40717,23.76178 12.80719,40.86182 34.20001,51.30002 l 16.5,8.1 5.59998,9.5 c 10.05584,14.8684 22.82355,17.759 38.30298,8.6719 15.47943,-9.0871 19.1784,-21.6444 11.09704,-37.6719 l -0.40002,-0.7 4.79999,-6.4 c 9.4765,-12.81998 13.34314,-27.15336 11.60003,-42.99998 L 946.5,893.29999 l 4.70001,-93 L 958,688.20001 972.59998,567.09998 992.79999,440.70001 1020.1,319.89999 1047.7,221.2 l 24.6001,-72.80001 20.5,-44.79999 6.8999,-14.900003 c 13.8868,-30.336098 6.2033,-53.524891 -23.0507,-69.566389 -29.254,-16.0414926 -52.9371,-10.0526964 -71.0493,17.96639 l -9.19998,14.5 -26.5,37.099999 -41,54.600003 -49,59.80001 L 823.5,266.39999 768.70001,328.10001 712.40002,379.5 c -0.16796,0.16537 -0.33465,0.33203 -0.5,0.5 L 666.5,422.79999 626.20001,444.60001 603.5,453 l -4.20001,-1.5 -6.89997,-6.39999 -4.60003,-9.9 c -0.004,5.52591 1.16296,10.79257 3.5,15.79999 v -7 C 591.27576,419.15762 578.84241,406.73642 554,406.73642 c -24.84241,0 -37.27576,12.4212 -37.29999,37.26358" /></g><g
           transform="matrix(0.01959325,0,0,0.01959325,527.05035,82.179909)"
           id="g156"><path
             id="path158"
             style="fill:#1f1f1f;fill-opacity:1;fill-rule:nonzero;stroke:none"
             d="m 39.400002,75 5.299999,2.900002 c 2.02689,-13.57866 -2.97311,-23.678662 -15,-30.300004 l -0.800001,5.5 c -1.098557,7.275498 -0.23189,14.308831 2.6,21.099999 l 7.799999,18.600006 4.299999,42.800007 4.800004,67 L 49,289.29999 c -9.42e-4,0.16665 -9.42e-4,0.33334 0,0.5 L 51,400.20001 49.5,531.5 c -8.93e-4,0.16669 -8.93e-4,0.33331 0,0.5 v 156.5 l -4,170.29999 c -0.0017,0.23334 -0.0017,0.46667 0,0.70001 l -6.299999,650 c -0.01902,15.1364 5.317146,28.0618 16.008514,38.7763 10.691372,10.7147 23.605206,16.0789 38.741505,16.0927 15.1363,0.014 28.0599,-5.327 38.77079,-16.0219 10.71089,-10.6952 16.07062,-23.6109 16.07919,-38.7471 l -4.3,-649.89999 c 3e-4,-0.1 3e-4,-0.19995 0,-0.29999 l -2,-170.70001 V 532 c 0.005,-0.40002 0.005,-0.80005 0,-1.20001 L 139,399 137,288.20001 c -0.0196,-0.63406 -0.053,-1.26739 -0.10001,-1.90002 l -5.39999,-87.9 c 6.4e-4,-0.13331 6.4e-4,-0.26664 0,-0.39999 l -5,-69 c -0.11438,-1.5445 -0.31438,-3.07783 -0.6,-4.6 l -9,-48.599997 c -0.51648,-2.751724 -1.31648,-5.418388 -2.4,-8 l -10,-24.000004 C 94.370819,19.342175 77.104156,12.242174 52.700001,22.5 L 47.5,24.700001 C 46.541954,25.117243 45.60862,25.583908 44.700001,26.1 L 39.400002,29 c -9.101658,4.965355 -13.652487,12.632019 -13.652487,23 2e-6,10.367981 4.550831,18.034645 13.652487,23" /><path
             id="path160"
             style="fill:#1f1f1f;fill-opacity:1;fill-rule:nonzero;stroke:none"
             d="m -246.7,1103.9 112.09999,10.3 c 2.76392,0.262 5.53058,0.2954 8.30001,0.1001 l 74.099999,-5.4001 c 0.768902,-0.083 1.535568,-0.1828 2.299999,-0.3 l 83.200001,-9.9 95.099991,-7.8999 c 1.1711,-0.094 2.33777,-0.2278 3.5,-0.4001 l 100,-15 c 4.45774,-0.6834 8.75774,-1.9168 12.90001,-3.7 l 86.59999,-36.8999 78.80002,-12.5001 c 17.5333,-2.8001 24.89997,-12.9668 22.09995,-30.50013 -2.80002,-17.53327 -12.96668,-24.89985 -30.49997,-22.09986 l -78.19998,12.39997 -93,-11.59998 c -4.83796,-0.6355 -9.67128,-0.60217 -14.5,0.1 L 117.3,985.5 22.6,995.29999 c -0.233562,0.0318 -0.466896,0.0652 -0.7,0.10003 l -83.999998,9.99998 -73.100002,8.5 -111.5,10.2 c -24.06688,2.4125 -36.10032,15.7125 -36.10032,39.9001 0,24.1875 12.03344,37.4875 36.10032,39.8999" /></g><g
           transform="matrix(0.01959325,0,0,0.01959325,547.11292,94.71907)"
           id="g162"><path
             id="path164"
             style="fill:#1f1f1f;fill-opacity:1;fill-rule:nonzero;stroke:none"
             d="m 38.799999,122.6 30.500004,3.9 c 4.376495,0.5773 8.743164,0.51064 13.099999,-0.2 l 41.499998,-7 58.3,-8.4 69.5,-8.8 71.90001,-5.6 64.89999,-4.800003 64.20001,3.400001 61.89997,7.700002 65.60003,9.3 c 0.63135,0.11254 1.26465,0.21254 1.89997,0.3 l 69,7 c 5.71008,0.5643 11.34344,0.13097 16.90002,-1.3 l 64.40002,-16.3 60,3.7 c 16.03327,0.004 24.55195,-7.995041 25.55597,-23.996872 C 818.96008,65.501289 811.50806,56.500248 795.59998,54.5 L 735.70001,50.700001 674.20001,25.9 c -4.27667,-1.731318 -8.70996,-2.831318 -13.29999,-3.3 L 592.59998,15.7 527.20001,7.1999998 c -0.0666,-0.033486 -0.13324,-0.066819 -0.20001,-0.1 L 463,-0.90000004 C 461.5379,-1.0670326 460.07123,-1.1670326 458.60001,-1.2 l -69,-2.3999999 c -1.70179,-0.057886 -3.4018,-0.024553 -5.10001,0.1 l -68,5 c -0.63467,0.053952 -1.26801,0.1206183 -1.89999,0.2 L 241.8,10 c -0.20021,0.03202 -0.40022,0.06535 -0.6,0.1 l -71,9 c -1.00548,0.133803 -2.00548,0.300469 -3,0.5 L 109,30.799999 68.5,37.599998 38.799999,41.400002 C 14.829788,44.31934 2.8446844,57.852669 2.8446844,82 c 0,24.14734 11.9851036,37.68066 35.9553146,40.6" /><path
             id="path166"
             style="fill:#1f1f1f;fill-opacity:1;fill-rule:nonzero;stroke:none"
             d="m 2.7,497.70001 8,-0.40002 c 3.029313,-0.1283 5.99598,-0.6283 8.9,-1.5 l 21.100001,-6.5 40.999996,-7.79999 49.699993,-8.60001 60.30001,-4 c 0.0667,1.6e-4 0.13333,1.6e-4 0.19999,0 L 259.5,464.10001 334.79999,467.5 c 1.16543,0.0763 2.33209,0.10962 3.5,0.10001 l 75,-2 c 0.50052,-0.0255 1.00052,-0.0588 1.5,-0.10001 l 68.30002,-4.10001 c 1.27035,-0.0531 2.53701,-0.15307 3.79998,-0.29998 l 65.80002,-8.9 69.09998,-6.1 c 0.2669,-0.0313 0.53357,-0.0646 0.79999,-0.10001 l 67,-7 c 8.97247,-0.91537 17.20581,-3.88202 24.70001,-8.89999 l 47.60003,-31.9 L 814,386.29999 c 16.64233,-4.547 23.04486,-15.23056 19.20758,-32.05072 C 829.37024,337.42914 818.96771,330.57938 802,333.70001 l -50.79999,11.59998 -54.5,-13.09998 C 690.66858,330.75491 684.56854,330.35492 678.40002,331 l -67,7 c -1.17096,0.0955 -2.33764,0.22879 -3.5,0.39999 L 539.29999,350 l -66.19998,8.89999 c -0.70279,0.11881 -1.40277,0.25214 -2.10001,0.4 L 407.20001,370.5 l -71.5,1.89999 c -1.50631,0.0621 -3.00631,0.19541 -4.5,0.4 L 255,382.10001 l -68.89999,5 c -1.6454,0.10147 -3.27874,0.30145 -4.90001,0.6 L 120.3,399.5 68.699997,408.39999 c -0.636826,0.11679 -1.270157,0.25013 -1.899994,0.4 L 23.9,418.60001 c -0.84042,0.17047 -1.673754,0.37048 -2.5,0.6 L 4.4000001,424.39999 2.7,424.29999 c -24.466672,0 -36.700008,12.23334 -36.700008,36.70001 0,24.46667 12.233336,36.70001 36.700008,36.70001" /></g><g
           transform="matrix(0.01959325,0,0,0.01959325,577.20972,82.179794)"
           id="g168"><path
             id="path170"
             style="fill:#1f1f1f;fill-opacity:1;fill-rule:nonzero;stroke:none"
             d="m 45.099998,1147.6 4.900002,8 6.099998,12.1 c 7.23972,14.3204 18.706391,23.1536 34.400002,26.5 l 25.3,5.4 c 4.78332,1.0259 9.61666,1.3926 14.5,1.1 l 33,-2 c 4.86003,-0.2909 9.59336,-1.2242 14.2,-2.8 l 46.7,-16.0999 c 3.78297,-1.3125 7.38298,-3.0126 10.8,-5.1001 l 51,-31 c 2.31082,-1.3744 4.5108,-2.9078 6.60001,-4.6 l 53,-43.7999 c 2.60928,-2.1545 5.00927,-4.5212 7.19998,-7.1001 l 51,-60 c 1.71841,-2.0569 3.28509,-4.2236 4.70001,-6.5 l 44.39999,-70.2 c 1.3367,-2.09094 2.53672,-4.25763 3.60001,-6.5 l 37,-79 c 0.1011,-0.1994 0.20111,-0.39941 0.29999,-0.59998 L 531.5,782.09998 c 0.24103,-0.52997 0.47437,-1.0633 0.70001,-1.59998 l 35.59998,-85 L 607,610.20001 c 0.7832,-1.76764 1.48322,-3.56769 2.09998,-5.40002 l 30.70001,-87.20001 32.5,-84.49997 c 0.5506,-1.41568 1.0506,-2.84903 1.5,-4.30002 L 697.09998,352 l 25.5,-66.20001 C 723.10541,284.54764 723.57208,283.28098 724,282 l 21,-66 c 0.2887,-0.96059 0.55536,-1.92726 0.79999,-2.89999 L 761.59998,154.2 773.90002,116.5 779.5,100.4 C 775.80115,62.196037 754.89178,40.852516 716.77185,36.369442 678.65198,31.886364 653.36139,47.796547 640.90002,84.099998 l 1.69996,16.700002 0.30004,45 -0.90002,73.7 -8.20001,96 -11,114.60001 c -0.0367,0.39972 -0.07,0.79971 -0.1,1.19998 L 612.29997,562.40002 597.4,708.59998 l -15.30004,150 c -0.0356,0.33313 -0.0689,0.66644 -0.1,1 L 569,1008.6 c -0.0399,0.5663 -0.0732,1.1329 -0.1,1.7 l -9.30004,144.0001 c -0.14557,1.9639 -0.21222,3.9305 -0.19996,5.8999 l 2,124 c 0.0449,1.0347 0.11152,2.0682 0.19996,3.1001 l 5.80004,100 c 0.0476,0.9678 0.11426,1.9345 0.19996,2.8999 l 7.70001,79 c 3.04706,31.1552 19.31372,51.9886 48.79999,62.5 l 4.30004,1.6001 1.19996,5.5 c 4.53338,20.9333 17.26672,29.1333 38.20007,24.5999 20.93335,-4.5333 29.13336,-17.2667 24.59997,-38.2 l -0.60003,-2.8 1.29999,-1 c 22.58422,-16.7608 32.41754,-39.1274 29.5,-67.0999 L 714.5,1376.9 l -6,-96.8 -1.90002,-119.5 8.5,-140.2 L 728,872.79999 l 14.59998,-149.5 15,-146.89997 c 0.0768,-0.69903 0.14343,-1.39904 0.20001,-2.10003 l 9.5,-131.19998 10.90002,-114.20002 c 0.0378,-0.46634 0.0712,-0.93301 0.1,-1.39999 l 7.60003,-99 c 0.11567,-1.5312 0.18232,-3.06453 0.19996,-4.60001 l 1,-77 c -0.008,-1.10075 -0.0414,-2.20076 -0.1,-3.29998 l -1.59998,-49.000012 c -0.0483,-1.569969 -0.14831,-3.136634 -0.30004,-4.699996 l -2,-20 C 779.23035,29.790287 757.19641,8.3334961 716.99811,5.5296264 676.7998,2.7257564 652.00043,20.915878 642.59998,60.099998 l -4.19996,17.200005 c -0.39837,1.720825 -0.73175,3.454155 -1,5.199997 l -6.60003,39.6 -12.59998,56.6 -20,62.69999 -23.29999,68.9 c -0.24322,0.62967 -0.47656,1.26303 -0.70001,1.90002 L 550.5,390.29999 l -28.79999,85.30002 -30.30002,85.99997 -35.6,86 -36,85.90002 c -0.10144,0.23273 -0.20145,0.46606 -0.29999,0.70001 l -33.60001,83.20001 -35.29998,75.19996 -37.70002,65.10003 -45.19998,53.29999 -44.30002,40 -43.29998,26.4 -33,14.5 -23.20001,1.4001 -25.700003,1.5 c -0.366669,0 -0.733337,0 -1.099999,0 L 81.900002,1096 c 7.405006,4.5441 15.438339,6.4774 24.099998,5.8001 L 96.599998,1096.1 c -16.766067,-10.1499 -32.078399,-8.2956 -45.937004,5.563 -13.858604,13.8586 -15.712936,29.171 -5.562996,45.937" /></g><g
           transform="matrix(0.01959325,0,0,0.01959325,386.60678,551.16467)"
           id="g172"><path
             id="path174"
             style="fill:#1f1f1f;fill-opacity:1;fill-rule:nonzero;stroke:none"
             d="M 20.200001,42.099998 8.8000002,78.5 C 6.6777763,85.355766 6.2111101,92.322433 7.4000001,99.400002 L 14.3,140.8 l 7.6,56 8.6,73.49999 -1.4,83.40002 -3.899999,106 L 17.5,586 c -0.0048,0.40002 -0.0048,0.80005 0,1.20001 l -5,137 c -0.04424,0.59937 -0.07757,1.19934 -0.1,1.79999 l 0.2,133 c -0.02728,0.96661 -0.02728,1.93329 0,2.90002 l 7,122.89997 5.3,103.90001 c 0.02952,0.367 0.06285,0.7337 0.1,1.1001 l 6,83.5 3.400002,66.5 c 0.03183,0.2335 0.06516,0.4669 0.1,0.6999 l 3,47 c 0.966511,15.0497 7.112362,27.5537 18.437561,37.5121 11.325203,9.9582 24.512672,14.4542 39.562424,13.4878 15.049743,-0.9664 27.553803,-7.1123 37.512173,-18.4375 9.95836,-11.3252 14.45432,-24.5127 13.48784,-39.5624 l -3,-47 c -0.0234,-0.6006 -0.0568,-1.2006 -0.10001,-1.8 l -6.5,-66.2 L 131,1082.2 c -0.0322,-0.2002 -0.0655,-0.4002 -0.10001,-0.6 L 122.3,978.40002 115.4,856.79999 111.6,726.20001 116.5,590.79999 c 3e-5,-0.0333 3e-5,-0.0666 0,-0.1 l 4.3,-127 4,-106.90002 c 0.0569,-0.86576 0.0902,-1.73239 0.1,-2.59998 l -1.4,-87 c -0.0239,-1.5383 -0.12391,-3.07162 -0.3,-4.6 l -9,-77 c -0.13812,-0.93843 -0.30478,-1.87177 -0.5,-2.80001 L 103.6,126.3 96.599998,84.599998 C 96.274132,82.534348 95.807465,80.501015 95.199997,78.5 L 83.800003,42.099998 C 78.948555,26.487862 68.348557,18.681795 52.000004,18.681795 c -16.348557,0 -26.948555,7.806067 -31.800003,23.418203" /><path
             id="path176"
             style="fill:#1f1f1f;fill-opacity:1;fill-rule:nonzero;stroke:none"
             d="m 27.9,1934.7 4,3.5 c 17.115587,14.8826 34.615587,15.3493 52.500002,1.4 l 5.199996,-4.1 12.800002,-5.9 c 3.03223,-1.4082 5.86556,-3.1415 8.5,-5.2 l 18.3,-14.3 c 3.44243,-2.6718 6.44243,-5.7718 9,-9.3 l 16.5,-22.9 c 3.95929,-5.4985 6.62596,-11.5652 8,-18.2 l 4.90001,-23.6 c 2.60189,-12.5615 0.63522,-24.3616 -5.90001,-35.4 l -8.30001,-14 C 139.20232,1762.7228 118.90231,1755.1895 92.5,1764.1 l -22.800003,7.7 c -11.912262,4.0337 -21.278927,11.3337 -28.099999,21.9 L 10.6,1841.7 c -1.3069101,2.022 -2.4735771,4.1221 -3.5000001,6.3 l -40.5000019,85.8 c -0.832336,1.8278 -1.56567,3.6944 -2.199996,5.6 l -42,120.9999 c -0.359444,0.9578 -0.692772,1.9243 -1,2.9001 L -118.4,2201.3999 c -0.4636,1.5505 -0.8636,3.1172 -1.2,4.7002 l -28.00001,138 c -0.14959,0.7974 -0.28293,1.5974 -0.39999,2.3999 l -21.89999,135.5 c -0.46001,2.8152 -0.72669,5.6484 -0.80001,8.5 l -3,127 c -0.039,2.1033 0.0276,4.2034 0.2,6.3 l 8.2,107.2 c 0.18094,2.5864 0.51426,5.1531 1,7.7 l 17,86 c 0.47104,2.3664 1.07104,4.6999 1.8,7 l 21.7,68.6999 c 2.4921,7.9744 6.32543,15.241 11.5,21.8001 l 37.999997,48 c 5.671417,7.1435 12.504753,12.9101 20.500004,17.3 l 44.9999988,24.8 c 11.4319363,6.2867 23.6652692,9.1534 36.7000002,8.5999 l 49.000002,-2 c 7.428291,-0.2864 14.628288,-1.7195 21.599998,-4.2998 l 49.5,-18.5 c 7.62083,-2.8516 14.55417,-6.885 20.8,-12.1001 l 48,-40 c 3.58428,-2.949 6.85096,-6.2158 9.80001,-9.8 l 40.79998,-50.3001 c 3.03052,-3.7385 5.66385,-7.7385 7.9,-12 l 29,-55 c 3.1018,-5.8245 5.36847,-11.9578 6.80002,-18.3999 L 323,2743.7 c 1.82751,-8.4415 2.16086,-16.9415 1,-25.5 l -7,-52 c -0.47314,-3.5875 -1.20648,-7.1207 -2.20001,-10.5999 l -14.19998,-49.2002 c -1.6669,-5.783 -4.00025,-11.283 -7,-16.5 l -23,-40 C 266.91965,2543.4919 262.38632,2537.7588 257,2532.7 l -30.39999,-28.5999 c -5.77266,-5.4202 -12.23932,-9.8203 -19.40001,-13.2002 l -36,-17 c -4.71962,-2.2432 -9.61963,-3.9766 -14.7,-5.1999 l -39.8,-9.5 c -8.13413,-1.9612 -16.36746,-2.5613 -24.7,-1.8001 l -43,4 c -2.721615,0.2542 -5.421612,0.6543 -8.099998,1.2002 L -2.0999999,2471.3 c -4.6988621,0.9686 -9.2655281,2.3687 -13.7000001,4.2 l -43.999999,18 c -7.740422,3.1436 -14.773762,7.4436 -21.100003,12.8999 l -29.999998,26 c -11.08538,9.6184 -18.75204,21.4519 -22.99999,35.5 l -10,33 c -2.66446,8.8127 -3.6978,17.8127 -3.10001,27 l 2,31 c 2.00371,20.4507 10.83475,37.3291 26.49309,50.6355 15.65835,13.3064 33.740507,19.2986 54.246465,17.9766 20.505959,-1.3221 37.668942,-9.5867 51.488947,-24.7937 C 1.0485077,2687.5115 7.6390061,2669.6389 7,2649.1001 L 5.9000001,2631.8999 5.5,2633.2 l 3.8999996,-3.4 26.1999984,-10.6999 32,-6.9001 27,-2.5999 20.200002,4.2998 18.7,8.8001 14.2,12.3 12.8,22.3999 11.39999,35 4.5,33.9001 -5.89999,32.7 -21.10001,39.8 -30.49999,40.5 -34.099997,28.3001 -27.000004,12 -19.099998,0.7998 L 22,2872.8999 0.60000002,2845.8 -19.9,2793.6001 -35.299999,2715.3999 -48.200001,2615.7 -45.400002,2496.3999 -29.9,2365.5 -2.5999999,2231 30.5,2095.1001 71.199997,1977.9 104.2,1896 l 21.2,-32.8 9.6,-5.6 c -18.75549,-19.0818 -39.688812,-21.8819 -62.800003,-8.4 l 11.400001,11.6 c 0.599198,-14.3521 -4.134132,-26.6521 -14.199996,-36.9 l -0.599999,13.2 -5.700005,10.6 -9.399997,10.7 -11.400002,9.3 -8.700001,6.7 c -0.579116,0.4516 -1.145782,0.9182 -1.699998,1.4 l -4,3.5 c -8.416691,7.3152 -12.625037,16.5486 -12.625037,27.7001 0,11.1513 4.208346,20.3845 12.625037,27.6999" /></g></g></g></g></svg>